<?xml version="1.0" encoding="utf-8"?>
<!-- Generator: Adobe Illustrator 22.0.0, SVG Export Plug-In . SVG Version: 6.00 Build 0)  -->
<svg version="1.1" id="Layer_1" xmlns="http://www.w3.org/2000/svg" xmlns:xlink="http://www.w3.org/1999/xlink" x="0px" y="0px"
	 viewBox="0 0 3400 1200" style="enable-background:new 0 0 3400 1200;" xml:space="preserve">
<style type="text/css">
	.st0{display:none;opacity:0.15;fill:#0054A5;enable-background:new    ;}
	.st1{fill:#0054A5;}
	.st2{fill:#F6921E;}
</style>
<polygon class="st0" points="1902.5,442.2 1652.2,442.2 1393.7,736.3 1446.1,441.7 1204.3,441.7 1160.4,688.7 931.9,688.7 
	975.8,441.7 734.1,441.7 604,1173.4 845.8,1173.4 896.2,889.9 1124.6,889.9 1074.2,1173.4 1316,1173.4 1374.7,843 1518.2,1173.4 
	1770.4,1173.4 1589.7,787.9 "/>
<g id="logo">
	<polygon class="st1" points="1371.1,139 1113.5,139 847.4,441.7 901.3,138.5 652.5,138.5 607.3,392.6 372.2,392.6 417.4,138.5 
		168.6,138.5 34.8,891.5 283.5,891.5 335.4,599.7 570.5,599.7 518.7,891.5 767.5,891.5 827.9,551.5 975.5,891.5 1235,891.5 
		1049.2,494.8 	"/>
	<polygon class="st2" points="1246.9,940.9 30.8,940.9 34.5,925.5 1250.2,925.5 	"/>
	<polygon class="st1" points="31.8,1048.8 11.5,1048.8 26.9,976.4 47.1,976.4 	"/>
	<polygon class="st1" points="200.9,976.4 214.9,976.4 199.5,1048.8 184.4,1048.8 165.9,997.2 165.8,997.2 154.8,1048.8 
		140.7,1048.8 156.1,976.4 172,976.4 190,1026.7 190.2,1026.7 	"/>
	<path class="st1" d="M371.2,1000.1c-0.3-4.3-0.9-12.6-13.4-12.6c-7.2,0-18.9,4.8-23.3,25.2c-2.8,13.1-0.1,24.7,12.7,24.7
		c8.3,0,15.2-4.7,18.9-13.6h15.1c-6.4,15.7-18.9,26.7-37,26.7c-19.2,0-30.3-13-24.9-38c5.4-25.2,22.7-38.1,41.4-38.1
		c21.6,0,27.2,14.9,25.7,25.5h-15.2V1000.1z"/>
	<path class="st1" d="M521.9,1037.9c8.1,0,20.7-5,25-25.2c4.3-20.3-6.1-25.3-14.3-25.3c-8.1,0-20.7,5-25,25.3
		C503.3,1032.8,513.7,1037.9,521.9,1037.9z M535.3,974.6c9.6,0,33.9,4.1,26.7,38.1c-7.2,34-33.2,38.1-42.8,38.1
		c-9.6,0-33.9-4.1-26.7-38.1C499.7,978.7,525.8,974.6,535.3,974.6z"/>
	<polygon class="st1" points="693.7,1048.8 678.6,1048.8 691.3,989.3 669.3,989.3 672.1,976.4 730.9,976.4 728.2,989.3 706.3,989.3 
			"/>
	<polygon class="st1" points="890.9,989.3 852.5,989.3 849.3,1004.4 884.6,1004.4 881.8,1017.2 846.6,1017.2 842.6,1035.9 
		882.7,1035.9 880,1048.8 825.1,1048.8 840.5,976.4 893.7,976.4 	"/>
	<path class="st1" d="M1049.3,1000.1c-0.3-4.3-0.8-12.6-13.3-12.6c-7.2,0-18.9,4.8-23.3,25.2c-2.8,13.1-0.1,24.7,12.7,24.7
		c8.3,0,15.2-4.7,18.9-13.6h15.1c-6.4,15.7-18.9,26.7-37,26.7c-19.2,0-30.3-13-24.9-38c5.4-25.2,22.6-38.1,41.4-38.1
		c21.6,0,27.3,14.9,25.7,25.5h-15.3V1000.1z"/>
	<polygon class="st1" points="1187.7,1016.2 1180.8,1048.8 1165.8,1048.8 1181.1,976.4 1196.2,976.4 1190.4,1003.8 1218.6,1003.8 
		1224.4,976.4 1239.5,976.4 1224.1,1048.8 1209,1048.8 1215.9,1016.2 	"/>
	<path class="st1" d="M64.6,933.2c0,10.2-8.2,18.3-18.4,18.3s-18.3-8.1-18.3-18.3c0-10.2,8.2-18.4,18.3-18.4
		C56.4,914.9,64.6,923,64.6,933.2z"/>
	<path class="st1" d="M1429.7,136.5c1.6,0,3.2-0.1,4.7-0.4c1.4-0.2,2.8-0.7,3.9-1.4c1.1-0.7,2-1.6,2.7-2.9c0.7-1.2,1-2.8,1-4.7
		c0-2.6-0.7-4.7-2.3-6.5c-1.4-1.7-3.9-2.6-7.2-2.6h-17.5v18.5H1429.7z M1408,112.1h24.9c5,0,9,1.2,11.8,3.7s4.3,5.9,4.3,10.1
		c0,3.2-0.7,6.1-2.2,8.4c-1.4,2.5-3.8,4.1-7,4.9v0.1c1.5,0.3,2.8,0.8,3.8,1.4c0.9,0.7,1.7,1.5,2.4,2.5c0.6,0.9,1,2.1,1.2,3.2
		s0.4,2.5,0.6,3.7c0.1,1.2,0.2,2.6,0.3,4c0.1,1.3,0.2,2.7,0.4,3.9c0.2,1.2,0.4,2.5,0.8,3.6c0.4,1.1,0.9,2.2,1.6,3.1h-7.8
		c-0.5-0.6-0.8-1.2-0.9-2s-0.3-1.6-0.3-2.7c-0.1-1-0.1-2.3-0.2-3.6c0-1.3-0.2-3-0.4-4.7c-0.2-1.2-0.4-2.5-0.7-3.7
		c-0.3-1.1-0.8-2.2-1.4-3c-0.6-0.8-1.5-1.5-2.6-2.1c-1-0.5-2.5-0.8-4.1-0.8h-17.2v22.6h-7v-52.8H1408z"/>
	<path class="st1" d="M1428.8,101.9c-21.5,0-39,17.5-39,39s17.5,39,39,39s39-17.5,39-39S1450.3,101.9,1428.8,101.9L1428.8,101.9z
		 M1428.8,185.4c-24.6,0-44.6-20-44.6-44.6s20-44.6,44.6-44.6c24.6,0,44.6,20,44.6,44.6C1473.4,165.4,1453.4,185.4,1428.8,185.4
		L1428.8,185.4z"/>
</g>
<g>
	<path class="st1" d="M1538,515H1508v-78.1h-84.8V515h-29.9V334.9h29.9v75.7h84.8v-75.7h30.1V515z"/>
	<path class="st1" d="M1636.2,518.1c-19.9,0-35.7-6-47.5-18c-11.8-12-17.8-28-17.8-47.8c0-21.6,6.2-38.5,18.5-50.6
		c12.3-12.1,29-18.2,49.9-18.2c20.1,0,35.7,5.9,47,17.7c11.2,11.8,16.9,28.2,16.9,49.1c0,20.5-6.1,36.9-18.1,49.3
		C1672.9,511.9,1656.7,518.1,1636.2,518.1z M1637.6,406.6c-11.4,0-20.4,4-27,11.9c-6.6,7.9-9.9,18.9-9.9,32.9
		c0,13.5,3.4,24.1,10.1,31.8c6.7,7.7,15.6,11.6,26.9,11.6c11.4,0,20.3-3.8,26.4-11.4c6.2-7.6,9.3-18.4,9.3-32.5
		c0-14.2-3.1-25.1-9.3-32.8C1657.9,410.4,1649.1,406.6,1637.6,406.6z"/>
	<path class="st1" d="M1828.5,515h-28.3v-20.1h-0.5c-8.9,15.4-21.9,23.2-39.1,23.2c-12.7,0-22.5-3.4-29.7-10.3
		c-7.2-6.9-10.7-16-10.7-27.3c0-24.3,14-38.5,42-42.5l38.2-5.4c0-18.3-8.7-27.5-26.1-27.5c-15.3,0-29.1,5.2-41.5,15.8v-25.5
		c13.6-8,29.2-12,47-12c32.5,0,48.8,16,48.8,48L1828.5,515L1828.5,515z M1801.2,363.8h-21.7l-32.9-41.2h26.9L1801.2,363.8z
		 M1800.4,451.8l-27,3.8c-8.3,1.1-14.7,3.1-18.9,6.1c-4.2,3-6.4,8.2-6.4,15.6c0,5.5,2,9.9,5.9,13.4c3.9,3.5,9.2,5.2,15.6,5.2
		c8.9,0,16.3-3.1,22-9.4c5.9-6.3,8.7-14.1,8.7-23.6V451.8z"/>
	<path class="st1" d="M1978.7,515h-29.1v-72.5c0-24.1-8.5-36-25.5-36c-8.9,0-16.2,3.3-22,10c-5.9,6.7-8.6,15-8.6,25.2V515h-29.2
		V386.3h29.2v21.4h0.5c9.7-16.3,23.6-24.4,41.7-24.4c14,0,24.7,4.5,32,13.6c7.4,9.1,11,22.2,11,39.4V515H1978.7z"/>
	<path class="st1" d="M2131.3,504.7c0,47.2-23.8,70.8-71.2,70.8c-16.8,0-31.4-2.8-43.8-8.4v-26.7c14.1,8,27.5,12,40,12
		c30.6,0,45.9-15,45.9-45.1v-14h-0.5c-9.7,16.5-24.1,24.6-43.4,24.6c-15.6,0-28.3-5.8-37.9-17.2c-9.6-11.4-14.4-26.8-14.4-46
		c0-21.8,5.1-39.2,15.4-52.2c10.3-12.9,24.5-19.3,42.5-19.3c17,0,29.6,7,37.8,20.9h0.5v-17.8h29.1L2131.3,504.7L2131.3,504.7z
		 M2102.5,456.1v-16.7c0-9.1-3-16.8-9-23.2c-6-6.4-13.5-9.6-22.4-9.6c-11,0-19.7,4.1-25.9,12.2s-9.4,19.6-9.4,34.3
		c0,12.7,3,22.7,9,30.4c6,7.6,13.9,11.3,23.8,11.3c10.1,0,18.2-3.6,24.5-10.9C2099.3,476.7,2102.5,467.4,2102.5,456.1z"/>
	<path class="st1" d="M2379.5,515h-38.9l-62.7-82.4c-2.4-3.1-3.8-5.1-4.3-6.3h-0.5V515h-29.9V334.9h29.9v84.7h0.5
		c1-1.9,2.5-3.9,4.3-6.2l60.4-78.5h35.8l-70.7,86.4L2379.5,515z"/>
	<path class="st1" d="M2511.5,515h-29.1v-70.4c0-25.4-8.5-38.2-25.5-38.2c-8.5,0-15.7,3.7-21.6,11c-5.9,7.4-8.7,16.8-8.7,28.3V515
		h-29.3V324.6h29.2v83.2h0.5c9.7-16.3,23.6-24.4,41.7-24.4c28.6,0,42.8,17.5,42.8,52.4V515H2511.5z"/>
	<path class="st1" d="M2645.7,515h-28.3v-20.1h-0.5c-8.9,15.4-21.9,23.2-39.1,23.2c-12.7,0-22.5-3.4-29.7-10.3
		c-7.2-6.9-10.7-16-10.7-27.3c0-24.3,14-38.5,42-42.5l38.2-5.4c0-18.3-8.7-27.5-26.1-27.5c-15.3,0-29.1,5.2-41.5,15.8v-25.5
		c13.6-8,29.2-12,47-12c32.5,0,48.8,16,48.8,48L2645.7,515L2645.7,515z M2617.5,451.8l-27,3.8c-8.3,1.1-14.7,3.1-18.9,6.1
		c-4.2,3-6.4,8.2-6.4,15.6c0,5.5,2,9.9,5.9,13.4s9.1,5.2,15.6,5.2c8.9,0,16.3-3.1,22-9.4c5.9-6.3,8.7-14.1,8.7-23.6V451.8z"/>
	<path class="st1" d="M2795.8,515h-29.2v-72.5c0-24.1-8.5-36-25.5-36c-8.9,0-16.2,3.3-22,10c-5.9,6.7-8.6,15-8.6,25.2V515h-29.2
		V386.3h29.2v21.4h0.5c9.7-16.3,23.6-24.4,41.7-24.4c14,0,24.7,4.5,32,13.6c7.4,9.1,11,22.2,11,39.4V515H2795.8z"/>
	<path class="st1" d="M2948.4,504.7c0,47.2-23.8,70.8-71.2,70.8c-16.8,0-31.4-2.8-43.8-8.4v-26.7c14.1,8,27.5,12,40,12
		c30.6,0,45.9-15,45.9-45.1v-14h-0.5c-9.7,16.5-24.1,24.6-43.4,24.6c-15.6,0-28.3-5.8-37.9-17.2c-9.6-11.4-14.4-26.8-14.4-46
		c0-21.8,5.1-39.2,15.4-52.2c10.3-12.9,24.5-19.3,42.5-19.3c17,0,29.6,7,37.8,20.9h0.5v-17.8h29.1V504.7z M2919.5,456.1v-16.7
		c0-9.1-3-16.8-9-23.2s-13.5-9.6-22.4-9.6c-11,0-19.7,4.1-25.9,12.2s-9.4,19.6-9.4,34.3c0,12.7,3,22.7,9,30.4s13.9,11.3,23.8,11.3
		c10.1,0,18.2-3.6,24.5-10.9S2919.5,467.4,2919.5,456.1z"/>
</g>
<g>
	<path class="st1" d="M1508.9,701c0,0.6-0.1,1.6-0.3,3c-0.2,1.3-0.4,2.8-0.7,4.2c-0.3,1.5-0.5,3-0.8,4.5c-0.3,1.4-0.5,2.7-0.7,3.7
		l-9.2,42.3h-12.3l9.5-45.2c0.2-0.8,0.4-1.9,0.6-2.9s0.4-2.1,0.5-3.1c0.1-1,0.3-2,0.4-2.9s0.1-1.5,0.1-2.1c0-4-0.8-7-2.6-9.2
		c-1.7-2.2-4.3-3.2-8-3.2c-2,0-3.9,0.4-5.9,1.3c-2.1,0.9-4,2.1-6,3.6c-2,1.5-3.8,3.3-5.6,5.2c-1.7,2.1-3.4,4.1-4.9,6.5
		c-1.4,2.3-2.8,4.6-3.8,7c-1,2.4-1.9,4.7-2.4,7l-8,37.9h-12.6l9.6-45.2c0.2-0.8,0.4-1.9,0.6-2.9c0.2-1,0.4-2.1,0.5-3.1
		c0.2-1,0.3-2,0.4-2.9c0.1-0.9,0.1-1.5,0.1-2.1c0-4-0.9-7-2.7-9.2c-1.7-2.2-4.4-3.2-7.9-3.2c-2,0-4,0.4-6.1,1.3s-4.1,2.1-6.1,3.6
		c-2,1.5-3.8,3.3-5.7,5.4c-1.7,2.1-3.4,4.2-4.9,6.5c-1.4,2.3-2.8,4.6-3.8,7c-1,2.4-1.7,4.7-2.3,7l-8,37.7h-12.6l11.9-55.1
		c0.4-2,0.8-4,1.2-6.2s0.8-4.2,1.1-6.2c0.3-2,0.6-3.8,0.9-5.6c0.2-1.7,0.4-3.1,0.6-4.2h12c-0.2,2-0.5,4-0.9,6.2
		c-0.3,2.2-0.6,4.1-0.9,5.9c-0.3,2.2-0.6,4.2-1,6.2h0.3c1.9-2.9,3.8-5.6,5.9-8c2.2-2.5,4.3-4.6,6.7-6.4s4.8-3.2,7.4-4.2
		c2.6-1,5.2-1.5,8-1.5c3.2,0,6,0.5,8.3,1.4c2.3,0.9,4.2,2.3,5.8,4c1.5,1.7,2.7,3.8,3.5,6.3c0.8,2.5,1.2,5.2,1.4,8.2
		c1.9-2.8,3.8-5.5,6-7.9c2.2-2.5,4.4-4.5,6.9-6.4c2.5-1.7,5-3.2,7.7-4.2c2.8-1,5.7-1.5,8.7-1.5c6.5,0,11.2,1.9,14.5,5.7
		C1507.2,689,1508.9,694.2,1508.9,701z"/>
	<path class="st1" d="M1584.9,734.1c-0.4,2-0.8,4-1.1,6.5c-0.4,2.4-0.7,4.7-1,7.1c-0.3,2.4-0.5,4.5-0.7,6.5
		c-0.2,2.1-0.3,3.6-0.3,4.6h-12.9c0-1,0.1-2.2,0.2-3.6s0.2-2.9,0.4-4.3c0.2-1.5,0.3-3,0.5-4.4c0.2-1.4,0.4-2.7,0.5-3.8h-0.3
		c-1.5,2.5-3.2,4.8-4.7,7c-1.6,2.2-3.4,4.1-5.4,5.8c-2,1.6-4.1,3-6.6,3.9c-2.5,0.9-5.2,1.4-8.5,1.4c-3.4,0-6.5-0.6-9.3-1.9
		c-2.8-1.2-5.1-3-7.2-5.4c-2.1-2.4-3.6-5.4-4.6-9c-1-3.6-1.6-7.8-1.6-12.6c0-2.9,0.3-6.3,0.9-10c0.6-3.7,1.6-7.5,3.1-11.4
		s3.3-7.6,5.8-11.3c2.4-3.7,5.4-7,8.9-9.9s7.7-5.2,12.6-7c4.8-1.7,10.4-2.7,16.8-2.7c4,0,8.1,0.3,12.5,0.9c4.2,0.6,8.5,1.3,12.8,2.2
		L1584.9,734.1z M1581.3,691.8c-1.7-0.4-3.8-0.7-6.2-1c-2.4-0.3-4.5-0.4-6.6-0.4c-4.3,0-8.2,0.7-11.5,2.1c-3.3,1.3-6.3,3.2-8.7,5.5
		c-2.5,2.3-4.5,4.8-6.2,7.7c-1.6,2.9-3,5.9-4,9c-1,3.1-1.7,6.1-2.2,9.1c-0.4,3-0.6,5.7-0.6,8c0,2.9,0.2,5.5,0.7,7.7
		c0.5,2.3,1.3,4.2,2.4,5.9c1,1.6,2.5,2.9,4.1,3.7c1.6,0.9,3.7,1.3,6,1.3c2.5,0,4.8-0.5,7-1.5c2.2-1,4.2-2.5,6.2-4.2
		c2-1.7,3.6-3.8,5.2-6.1c1.5-2.3,3-4.7,4.2-7.3s2.4-5.2,3.2-7.9c0.9-2.7,1.5-5.2,2.2-7.8L1581.3,691.8z"/>
	<path class="st1" d="M1679.2,700.8c0,0.7-0.1,1.7-0.3,3.1c-0.2,1.3-0.4,2.7-0.7,4.2c-0.3,1.5-0.5,3-0.8,4.5
		c-0.3,1.4-0.5,2.8-0.8,3.8l-9,42.3h-12.5l9.5-45.2c0.2-0.8,0.4-1.7,0.6-2.8c0.2-1,0.4-2.2,0.5-3.2c0.1-1,0.3-2.1,0.4-2.9
		c0.1-0.9,0.1-1.5,0.1-2.1c0-3.8-0.9-6.8-2.8-9.1c-1.9-2.2-4.5-3.3-8.1-3.3c-3.3,0-6.6,1-9.9,3c-3.3,2-6.3,4.4-9.1,7.5
		c-2.8,3-5.1,6.4-7.1,10s-3.3,7.1-4,10.5l-8,37.7h-12.6l11.9-55.1c0.4-2,0.8-4,1.2-6.2c0.4-2.2,0.8-4.2,1.1-6.2
		c0.3-2,0.6-3.8,0.9-5.6c0.2-1.7,0.4-3.1,0.6-4.2h12c-0.2,2-0.5,4-0.9,6.2c-0.3,2.2-0.6,4.1-0.9,5.9c-0.3,2.2-0.6,4.2-1,6.2h0.3
		c1.7-2.8,3.7-5.4,5.9-7.8c2.2-2.5,4.4-4.5,6.9-6.4c2.5-1.9,5.1-3.3,7.9-4.3s5.8-1.5,8.7-1.5c3.4,0,6.4,0.5,8.9,1.5
		c2.5,1,4.5,2.5,6.2,4.3c1.6,1.9,2.9,4.1,3.6,6.7C1678.8,694.9,1679.2,697.7,1679.2,700.8z"/>
	<path class="st1" d="M1751.1,753.2c-1.2,6.1-2.9,11.6-4.9,16.7s-4.7,9.6-8.1,13.3c-3.4,3.7-7.6,6.7-12.6,8.7s-11,3.1-18.2,3.1
		c-4.9,0-9.2-0.6-12.9-1.7c-3.6-1.1-7-2.6-10-4.1l2.4-11.5c3.2,2,6.5,3.5,10.1,4.8c3.6,1.3,7.4,2,11.5,2c4.4,0,8.3-0.6,11.6-2
		c3.3-1.3,6.2-3.2,8.5-5.8c2.4-2.6,4.3-5.7,6-9.3c1.5-3.7,2.9-7.8,3.9-12.6l2.7-12h-0.3c-2,3.1-3.8,5.8-5.7,7.9
		c-1.9,2.3-3.8,4.1-5.8,5.6c-2.1,1.4-4.1,2.6-6.4,3.3c-2.2,0.7-4.6,1.1-7.3,1.1c-3.5,0-6.6-0.6-9.5-1.9c-2.8-1.2-5.2-3.1-7.2-5.5
		c-2-2.4-3.5-5.5-4.6-9.1c-1.1-3.6-1.6-7.8-1.6-12.6c0-4.4,0.5-8.9,1.4-13.2c1-4.3,2.4-8.4,4.2-12.2c1.9-3.9,4.1-7.4,6.8-10.7
		c2.7-3.2,5.8-6.1,9.2-8.4c3.4-2.4,7.2-4.2,11.2-5.6c4.1-1.3,8.4-2,13.2-2c4.6,0,9.4,0.3,14,0.9c4.6,0.6,9,1.2,12.9,2.1
		L1751.1,753.2z M1751.8,691.8c-1.7-0.4-3.8-0.7-6.2-1c-2.5-0.3-5-0.4-7.8-0.4c-4.7,0-9.1,1.1-13,3.3c-3.9,2.2-7.3,5.1-10.2,8.9
		c-2.9,3.7-5,8.1-6.6,13.1s-2.4,10.2-2.4,15.7c0,2.7,0.2,5.2,0.7,7.5c0.5,2.3,1.2,4.3,2.3,6c1,1.6,2.4,3,4,3.9
		c1.6,0.9,3.6,1.4,6,1.4c2.8,0,5.4-0.6,7.6-1.7c2.4-1.1,4.5-2.7,6.5-4.6c2-2,3.7-4.1,5.2-6.5c1.5-2.5,2.9-4.9,4.1-7.5
		c1.1-2.6,2.2-5,3-7.6c0.8-2.5,1.4-4.7,1.9-6.8L1751.8,691.8z"/>
	<path class="st1" d="M1881.1,735c-0.3,1.6-0.7,3.5-1,5.8c-0.3,2.3-0.6,4.5-0.8,6.8c-0.2,2.3-0.5,4.4-0.6,6.5
		c-0.2,2.1-0.3,3.6-0.3,4.6h-12.9c0-0.8,0.1-2,0.2-3.4c0.1-1.4,0.3-2.9,0.4-4.5c0.2-1.5,0.4-3.1,0.5-4.5c0.2-1.4,0.4-2.6,0.5-3.5
		h-0.3c-1.9,2.9-3.6,5.5-5.5,7.7c-1.9,2.3-3.7,4.1-5.8,5.6s-4.1,2.6-6.4,3.4c-2.3,0.8-4.7,1.1-7.5,1.1c-3.5,0-6.7-0.6-9.5-1.9
		c-2.8-1.2-5.2-3.1-7.2-5.6s-3.5-5.5-4.5-9.1c-1-3.6-1.5-7.7-1.5-12.3c0-3.7,0.4-7.6,1.1-11.6c0.8-4,2-7.9,3.6-11.8s3.7-7.5,6.2-11
		c2.5-3.5,5.5-6.5,9-9.2c3.5-2.6,7.4-4.7,11.9-6.2c4.4-1.5,9.5-2.3,15-2.3c2.8,0,5.5,0.2,7.8,0.5c2.4,0.3,4.5,0.7,6.3,1.1l2.8-13.3
		h-24.8l2.2-10h24.9l3-13.7h12.2l-2.9,13.7h10.3l-2.2,10h-10.2L1881.1,735z M1877.8,692.1c-2-0.5-3.9-1-6-1.3
		c-2.1-0.3-4.3-0.5-6.7-0.5c-4.3,0-8.2,0.7-11.5,2.1s-6.3,3.2-8.7,5.5c-2.5,2.3-4.5,4.8-6.3,7.7c-1.6,2.9-3.1,5.9-4.1,8.9
		c-1,3.1-1.7,6.1-2.2,9c-0.4,3-0.6,5.6-0.6,7.9c0,2.8,0.2,5.4,0.7,7.7c0.5,2.3,1.2,4.3,2.4,6c1,1.6,2.5,3,4.2,3.8
		c1.7,0.9,3.8,1.3,6.2,1.3c2.5,0,4.8-0.5,7-1.5c2.2-1,4.2-2.5,6.2-4.3c2-1.9,3.6-3.9,5.2-6.3c1.5-2.4,3-4.8,4.2-7.5s2.4-5.4,3.2-8.1
		c0.9-2.8,1.5-5.4,2.2-7.9L1877.8,692.1z"/>
	<path class="st1" d="M1969.1,699.7c0,4.1-0.9,7.8-2.7,11.1c-1.9,3.3-4.8,6.2-9,8.5c-4.2,2.4-9.7,4.2-16.5,5.6s-15.2,2-25.3,2.1
		c-0.1,0.5-0.1,1.1-0.1,1.7c0,0.5,0,1,0,1.5c0,2.7,0.4,5.2,1.1,7.7s2,4.5,3.5,6.4c1.5,1.9,3.6,3.2,6.1,4.3c2.5,1,5.5,1.5,8.9,1.5
		c3.5,0,7.3-0.6,11.4-2s8.1-3.2,11.8-5.7l-2.4,12.2c-2.8,1.6-6.1,3-9.9,4.2c-3.8,1.2-8.1,1.9-12.9,1.9c-5.7,0-10.5-0.9-14.4-2.7
		c-3.9-1.7-7-4.1-9.5-7c-2.4-3-4.1-6.4-5.1-10.2c-1-3.8-1.5-7.9-1.5-12.1c0-4.5,0.5-8.9,1.5-13.1c1-4.2,2.5-8.1,4.2-11.7
		c1.9-3.6,4-6.9,6.6-9.9c2.6-3,5.4-5.6,8.5-7.6c3.2-2.1,6.5-3.7,10-4.9c3.6-1.1,7.3-1.7,11.1-1.7c4,0,7.5,0.5,10.5,1.5
		c3.1,1,5.6,2.5,7.6,4.3c2.1,1.9,3.6,3.9,4.6,6.4C1968.5,694.6,1969.1,696.9,1969.1,699.7z M1956.5,700.2c0-3.2-1.1-5.7-3.5-7.4
		s-5.5-2.7-9.3-2.7c-3.1,0-6.1,0.6-8.9,2c-2.9,1.3-5.5,3.2-7.9,5.5c-2.5,2.3-4.5,5.1-6.3,8.3c-1.7,3.3-3.1,6.8-3.8,10.5
		c7.2,0,13.3-0.4,18.3-1.1s9.2-1.7,12.2-3.2c3.2-1.4,5.5-3.1,6.9-5.1C1955.7,705.1,1956.5,702.8,1956.5,700.2z M1955.9,666.9
		l-8.5-11.2l-16.1,11.2h-9.2l21.3-18.7h10l10.9,18.7H1955.9z M1961.2,655.4l17.6-18.5h12.7l-20.7,18.5H1961.2z"/>
	<path class="st1" d="M2050.8,700.8c0,0.7-0.1,1.7-0.3,3.1c-0.2,1.3-0.4,2.7-0.7,4.2c-0.3,1.5-0.5,3-0.8,4.5
		c-0.3,1.4-0.5,2.8-0.8,3.8l-9,42.3h-12.6l9.5-45.2c0.2-0.8,0.4-1.7,0.6-2.8c0.2-1,0.4-2.2,0.5-3.2c0.1-1,0.3-2.1,0.4-2.9
		s0.1-1.5,0.1-2.1c0-3.8-0.9-6.8-2.8-9.1c-1.9-2.2-4.5-3.3-8.1-3.3c-3.3,0-6.6,1-9.9,3c-3.3,2-6.3,4.4-9.1,7.5s-5.1,6.4-7.1,10
		s-3.3,7.1-4,10.5l-8,37.7h-12.6l11.9-55.1c0.4-2,0.8-4,1.2-6.2s0.8-4.2,1.1-6.2c0.3-2,0.6-3.8,0.9-5.6c0.2-1.7,0.4-3.1,0.6-4.2h12
		c-0.2,2-0.5,4-0.9,6.2c-0.3,2.2-0.6,4.1-0.9,5.9c-0.3,2.2-0.6,4.2-1,6.2h0.3c1.7-2.8,3.7-5.4,5.9-7.8c2.2-2.5,4.4-4.5,6.9-6.4
		c2.5-1.9,5.1-3.3,7.9-4.3c2.8-1,5.8-1.5,8.7-1.5c3.4,0,6.4,0.5,8.9,1.5c2.5,1,4.5,2.5,6.2,4.3c1.6,1.9,2.9,4.1,3.6,6.7
		C2050.5,694.9,2050.8,697.7,2050.8,700.8z"/>
	<path class="st1" d="M2165.3,753.2c-1.2,6.1-2.9,11.6-4.9,16.7c-2.1,5-4.8,9.6-8.1,13.3c-3.4,3.7-7.6,6.7-12.6,8.7
		c-4.9,2.1-11,3.1-18.2,3.1c-4.9,0-9.2-0.6-12.9-1.7c-3.6-1.1-7-2.6-10-4.1l2.4-11.5c3.2,2,6.5,3.5,10.1,4.8c3.6,1.3,7.4,2,11.5,2
		c4.4,0,8.3-0.6,11.6-2c3.3-1.3,6.2-3.2,8.5-5.8c2.4-2.6,4.3-5.7,6-9.3c1.5-3.7,2.9-7.8,3.9-12.6l2.7-12h-0.3
		c-2,3.1-3.8,5.8-5.7,7.9c-1.9,2.3-3.8,4.1-5.8,5.6s-4.1,2.6-6.4,3.3c-2.2,0.7-4.6,1.1-7.3,1.1c-3.5,0-6.6-0.6-9.5-1.9
		c-2.8-1.2-5.2-3.1-7.2-5.5c-2-2.4-3.5-5.5-4.6-9.1c-1-3.6-1.6-7.8-1.6-12.6c0-4.4,0.5-8.9,1.4-13.2c1-4.3,2.4-8.4,4.2-12.2
		c1.9-3.9,4.1-7.4,6.8-10.7c2.7-3.2,5.8-6.1,9.2-8.4c3.4-2.4,7.2-4.2,11.2-5.6c4.1-1.3,8.4-2,13.2-2c4.7,0,9.4,0.3,14,0.9
		c4.6,0.6,9,1.2,12.9,2.1L2165.3,753.2z M2165.9,691.8c-1.7-0.4-3.8-0.7-6.2-1c-2.5-0.3-5-0.4-7.8-0.4c-4.7,0-9.1,1.1-13,3.3
		c-3.9,2.2-7.3,5.1-10.2,8.9c-2.9,3.7-5,8.1-6.6,13.1s-2.4,10.2-2.4,15.7c0,2.7,0.2,5.2,0.7,7.5c0.5,2.3,1.2,4.3,2.3,6
		c1,1.6,2.4,3,4,3.9c1.6,0.9,3.6,1.4,6,1.4c2.8,0,5.4-0.6,7.6-1.7c2.4-1.1,4.5-2.7,6.5-4.6c2-2,3.7-4.1,5.2-6.5
		c1.5-2.5,2.9-4.9,4.1-7.5c1.1-2.6,2.2-5,3-7.6c0.8-2.5,1.4-4.7,1.9-6.8L2165.9,691.8z"/>
	<path class="st1" d="M2216.2,758.5c-1.2,0.4-2.7,0.7-4.2,1c-1.5,0.2-3.2,0.4-4.7,0.4c-5,0-8.9-1.2-11.4-3.8
		c-2.5-2.6-3.8-6-3.8-10.2c0-1.2,0.1-2.8,0.4-4.4c0.2-1.7,0.6-3.8,1.2-6.4l11.2-53.4h12.6l-11.3,53.7c-0.4,2.2-0.7,3.7-0.9,4.9
		c-0.2,1.1-0.3,2.2-0.3,3c0,2.1,0.5,3.6,1.6,4.7c1.1,1.1,2.9,1.6,5.4,1.6c1.3,0,2.5-0.1,3.4-0.2c1-0.1,1.9-0.4,2.8-0.7L2216.2,758.5
		z M2225.1,654c0,2.3-0.7,4.2-2.3,5.8c-1.5,1.6-3.4,2.4-5.7,2.4c-2.3,0-4.1-0.8-5.8-2.4c-1.6-1.5-2.5-3.5-2.5-5.9
		c0-2.3,0.8-4.2,2.5-5.7c1.6-1.4,3.6-2.2,5.8-2.2c2.2,0,4.1,0.7,5.7,2.3C2224.2,649.9,2225.1,651.8,2225.1,654z"/>
	<path class="st1" d="M2293.1,734.1c-0.4,2-0.8,4-1.1,6.5c-0.4,2.4-0.7,4.7-1,7.1s-0.5,4.5-0.7,6.5c-0.2,2.1-0.3,3.6-0.3,4.6H2277
		c0-1,0.1-2.2,0.2-3.6c0.1-1.4,0.2-2.9,0.4-4.3c0.2-1.5,0.3-3,0.5-4.4c0.2-1.4,0.4-2.7,0.6-3.8h-0.3c-1.5,2.5-3.2,4.8-4.7,7
		c-1.6,2.2-3.4,4.1-5.4,5.8c-2,1.6-4.1,3-6.6,3.9c-2.5,0.9-5.2,1.4-8.5,1.4c-3.4,0-6.5-0.6-9.3-1.9c-2.8-1.2-5.1-3-7.2-5.4
		c-2.1-2.4-3.6-5.4-4.6-9c-1-3.6-1.6-7.8-1.6-12.6c0-2.9,0.3-6.3,0.9-10c0.6-3.7,1.6-7.5,3.1-11.4s3.3-7.6,5.8-11.3
		c2.4-3.7,5.4-7,8.9-9.9c3.5-2.9,7.7-5.2,12.6-7c4.8-1.7,10.4-2.7,16.8-2.7c4,0,8.1,0.3,12.5,0.9s8.5,1.3,12.8,2.2L2293.1,734.1z
		 M2289.5,691.8c-1.7-0.4-3.8-0.7-6.2-1c-2.4-0.3-4.5-0.4-6.6-0.4c-4.3,0-8.2,0.7-11.5,2.1c-3.3,1.3-6.3,3.2-8.7,5.5
		c-2.5,2.3-4.5,4.8-6.2,7.7s-3,5.9-4,9c-1,3.1-1.7,6.1-2.2,9.1c-0.4,3-0.6,5.7-0.6,8c0,2.9,0.2,5.5,0.7,7.7c0.5,2.3,1.3,4.2,2.4,5.9
		c1.1,1.6,2.5,2.9,4.1,3.7c1.6,0.9,3.7,1.3,6,1.3c2.5,0,4.8-0.5,7-1.5c2.2-1,4.2-2.5,6.2-4.2c2-1.7,3.6-3.8,5.2-6.1
		c1.5-2.3,3-4.7,4.2-7.3c1.2-2.6,2.4-5.2,3.2-7.9c0.9-2.7,1.5-5.2,2.2-7.8L2289.5,691.8z M2273.9,640.5c0.9-0.1,1.9-0.2,2.6-0.2
		c0.7,0,1.6-0.1,2.8-0.1c2.3,0,4.2,0.3,6,0.8c1.6,0.5,3.1,1.2,4.2,2.3c1.1,0.9,2.1,2.1,2.6,3.3c0.6,1.2,0.8,2.7,0.8,4.1
		c0,1.7-0.3,3.4-1,4.8c-0.7,1.4-1.6,2.8-2.8,3.8c-1.1,1.1-2.6,2-4,2.7s-3.1,1.1-4.7,1.2l-0.7,3.8h-8.2l1.9-8.6c2.9,0,5.2-0.5,7-1.5
		s2.7-2.6,2.7-4.4c0-1.3-0.4-2.4-1.3-3.2c-0.9-0.8-2.4-1.2-4.5-1.2c-0.7,0-1.4,0.1-2.4,0.2c-0.8,0.1-1.6,0.3-2.4,0.4L2273.9,640.5z"
		/>
	<path class="st1" d="M2339.8,758.5c-1.2,0.4-2.7,0.7-4.2,1c-1.5,0.2-3.2,0.4-4.7,0.4c-5,0-8.9-1.2-11.4-3.8
		c-2.5-2.6-3.8-6-3.8-10.2c0-1.2,0.1-2.8,0.4-4.4c0.2-1.7,0.6-3.8,1.2-6.4l11.2-53.4h12.6l-11.3,53.7c-0.4,2.2-0.7,3.7-0.9,4.9
		c-0.2,1.1-0.3,2.2-0.3,3c0,2.1,0.5,3.6,1.6,4.7c1.1,1.1,2.9,1.6,5.4,1.6c1.3,0,2.5-0.1,3.4-0.2c1-0.1,1.9-0.4,2.8-0.7L2339.8,758.5
		z M2348.6,654c0,2.3-0.7,4.2-2.3,5.8c-1.5,1.6-3.4,2.4-5.7,2.4s-4.1-0.8-5.8-2.4c-1.6-1.5-2.5-3.5-2.5-5.9c0-2.3,0.8-4.2,2.5-5.7
		c1.6-1.4,3.6-2.2,5.8-2.2c2.2,0,4.1,0.7,5.7,2.3S2348.6,651.8,2348.6,654z"/>
	<path class="st1" d="M2468.6,708.5c0,3.7-0.4,7.6-1.2,11.5c-0.8,4-2.1,7.9-3.7,11.8c-1.6,3.9-3.7,7.5-6.2,11
		c-2.5,3.5-5.5,6.5-8.7,9.2c-3.4,2.7-7.2,4.7-11.4,6.3c-4.3,1.5-9,2.3-14.2,2.3c-3,0-5.9-0.3-8.7-0.8c-2.9-0.5-5.5-1.2-7.6-2
		l-7.7,36.7h-12.6l18.8-89.2c0.3-1.6,0.7-3.5,1-5.8c0.3-2.3,0.5-4.5,0.8-6.8c0.2-2.3,0.4-4.4,0.5-6.5s0.2-3.6,0.2-4.6h12.7
		c0,0.8-0.1,2.1-0.2,3.5c-0.1,1.4-0.3,3-0.5,4.5c-0.2,1.5-0.4,3.1-0.6,4.6c-0.2,1.4-0.4,2.7-0.5,3.6h0.3c3.6-6.1,7.6-10.6,12-13.6
		c4.4-3,9.4-4.5,14.6-4.5c3.5,0,6.7,0.6,9.5,1.9c2.8,1.2,5.2,3,7.2,5.5c2,2.4,3.5,5.5,4.5,9.1
		C2467.9,699.8,2468.6,703.8,2468.6,708.5z M2456,709.1c0-2.7-0.2-5.2-0.7-7.5c-0.5-2.3-1.2-4.3-2.4-6s-2.6-3-4.2-3.9
		c-1.7-0.9-3.8-1.4-6.4-1.4c-2.6,0-5,0.5-7.3,1.6c-2.3,1.1-4.4,2.6-6.4,4.3c-2,1.7-3.7,3.9-5.4,6.3c-1.6,2.4-3.1,4.8-4.3,7.4
		c-1.2,2.6-2.4,5.1-3.2,7.7c-0.9,2.6-1.5,5-2,7.3l-4.7,22.4c0.9,0.4,2,0.7,3.2,1.1s2.6,0.6,3.9,0.8c1.3,0.2,2.8,0.4,4.1,0.6
		c1.4,0.1,2.7,0.2,3.9,0.2c3.5,0,6.7-0.6,9.6-1.7c3-1.1,5.6-2.7,7.9-4.7c2.4-2,4.4-4.3,6.2-7c1.7-2.7,3.3-5.6,4.5-8.5
		c1.2-3,2.2-6.2,2.7-9.5C2455.7,715.3,2456,712.1,2456,709.1z"/>
	<path class="st1" d="M2552.6,701c0,0.6-0.1,1.6-0.3,3c-0.2,1.3-0.4,2.8-0.6,4.2c-0.2,1.5-0.5,3-0.7,4.5c-0.3,1.4-0.5,2.7-0.8,3.7
		l-9,42.3h-12.6l9.5-45.2c0.2-0.8,0.4-1.7,0.6-2.8c0.2-1,0.4-2.2,0.5-3.2s0.3-2.1,0.4-2.9c0.1-0.9,0.1-1.5,0.1-2.1
		c0-3.9-0.9-7-2.7-9.2c-1.7-2.2-4.5-3.2-8.2-3.2c-3.2,0-6.5,0.9-9.7,2.8c-3.2,1.9-6.2,4.3-9,7.3c-2.8,3-5.1,6.4-7.2,10
		c-2.1,3.7-3.5,7.3-4.2,11l-8,37.4h-12.6l24.4-114.2h12.3l-11.7,55.2h0.3c1.9-2.9,3.9-5.6,6.1-7.9c2.2-2.5,4.5-4.5,7-6.4
		c2.5-1.7,5.1-3.2,7.8-4.2c2.8-1,5.6-1.5,8.4-1.5c6.5,0,11.3,1.9,14.6,5.7C2551,689.2,2552.6,694.3,2552.6,701z"/>
	<path class="st1" d="M2628.8,734.1c-0.4,2-0.8,4-1.1,6.5c-0.4,2.4-0.7,4.7-1,7.1s-0.5,4.5-0.7,6.5c-0.2,2.1-0.3,3.6-0.3,4.6h-12.9
		c0-1,0.1-2.2,0.2-3.6c0.1-1.4,0.2-2.9,0.4-4.3c0.2-1.5,0.3-3,0.5-4.4c0.2-1.4,0.4-2.7,0.6-3.8h-0.3c-1.5,2.5-3.2,4.8-4.7,7
		c-1.6,2.2-3.4,4.1-5.4,5.8c-2,1.6-4.1,3-6.6,3.9c-2.5,0.9-5.2,1.4-8.5,1.4c-3.4,0-6.5-0.6-9.3-1.9c-2.8-1.2-5.1-3-7.2-5.4
		c-2.1-2.4-3.6-5.4-4.6-9s-1.6-7.8-1.6-12.6c0-2.9,0.3-6.3,0.9-10c0.6-3.7,1.6-7.5,3.1-11.4c1.4-3.9,3.3-7.6,5.8-11.3
		c2.4-3.7,5.4-7,8.9-9.9s7.7-5.2,12.6-7c4.8-1.7,10.4-2.7,16.8-2.7c4,0,8.1,0.3,12.5,0.9s8.5,1.3,12.8,2.2L2628.8,734.1z
		 M2625.2,691.8c-1.7-0.4-3.8-0.7-6.2-1c-2.4-0.3-4.5-0.4-6.6-0.4c-4.3,0-8.2,0.7-11.5,2.1s-6.3,3.2-8.7,5.5
		c-2.5,2.3-4.5,4.8-6.2,7.7c-1.6,2.9-3,5.9-4,9c-1,3.1-1.7,6.1-2.2,9.1c-0.4,3-0.6,5.7-0.6,8c0,2.9,0.2,5.5,0.7,7.7
		c0.5,2.3,1.3,4.2,2.4,5.9c1.1,1.6,2.5,2.9,4.1,3.7c1.6,0.9,3.7,1.3,6,1.3c2.5,0,4.8-0.5,7-1.5c2.2-1,4.2-2.5,6.2-4.2
		c2-1.7,3.6-3.8,5.2-6.1c1.5-2.3,3-4.7,4.2-7.3s2.4-5.2,3.2-7.9c0.9-2.7,1.5-5.2,2.2-7.8L2625.2,691.8z M2613.2,666.9h-9.3
		l21.8-24.7h12.1L2613.2,666.9z"/>
	<path class="st1" d="M2722,708.5c0,3.7-0.4,7.6-1.2,11.5c-0.8,4-2.1,7.9-3.7,11.8s-3.7,7.5-6.2,11c-2.5,3.5-5.5,6.5-8.7,9.2
		c-3.4,2.7-7.2,4.7-11.4,6.3c-4.3,1.5-9,2.3-14.2,2.3c-3,0-5.9-0.3-8.7-0.8c-2.9-0.5-5.5-1.2-7.6-2l-7.7,36.7h-12.6l18.8-89.2
		c0.3-1.6,0.7-3.5,1-5.8c0.3-2.3,0.5-4.5,0.8-6.8c0.2-2.3,0.4-4.4,0.5-6.5c0.1-2.1,0.2-3.6,0.2-4.6h12.7c0,0.8-0.1,2.1-0.2,3.5
		c-0.1,1.4-0.3,3-0.5,4.5c-0.2,1.5-0.4,3.1-0.6,4.6c-0.2,1.4-0.4,2.7-0.5,3.6h0.3c3.6-6.1,7.6-10.6,12-13.6c4.4-3,9.4-4.5,14.6-4.5
		c3.5,0,6.7,0.6,9.5,1.9c2.8,1.2,5.2,3,7.2,5.5c2,2.4,3.5,5.5,4.5,9.1S2722,703.8,2722,708.5z M2709.4,709.1c0-2.7-0.2-5.2-0.7-7.5
		c-0.5-2.3-1.2-4.3-2.4-6s-2.6-3-4.2-3.9c-1.7-0.9-3.8-1.4-6.4-1.4s-5,0.5-7.3,1.6c-2.3,1.1-4.4,2.6-6.4,4.3c-2,1.7-3.7,3.9-5.4,6.3
		c-1.6,2.4-3.1,4.8-4.3,7.4c-1.2,2.6-2.4,5.1-3.2,7.7c-0.9,2.6-1.5,5-2,7.3l-4.7,22.4c0.9,0.4,2,0.7,3.3,1.1
		c1.2,0.3,2.6,0.6,3.9,0.8c1.3,0.2,2.8,0.4,4.1,0.6c1.3,0.2,2.7,0.2,3.9,0.2c3.5,0,6.7-0.6,9.6-1.7c3-1.1,5.6-2.7,7.9-4.7
		c2.4-2,4.4-4.3,6.2-7c1.7-2.7,3.3-5.6,4.5-8.5c1.2-3,2.2-6.2,2.7-9.5C2709,715.3,2709.4,712.1,2709.4,709.1z"/>
	<path class="st1" d="M2822.4,692.1h-19.5l-8.6,41c-0.3,1.5-0.6,3.2-0.9,5c-0.3,1.9-0.4,3.3-0.4,4.3c0,2.6,0.6,4.4,1.6,5.6
		c1.1,1.1,2.9,1.6,5.4,1.6c0.6,0,1.3-0.1,2.4-0.3c0.9-0.2,2-0.4,3-0.7s2-0.6,3-1c1-0.4,1.9-0.7,2.6-1l-2.4,10.8
		c-1.7,0.7-3.8,1.4-6,2c-2.3,0.5-4.3,0.8-6.4,0.8c-2.9,0-5.4-0.4-7.3-1.1c-2.1-0.7-3.7-1.7-4.9-3.1s-2.2-3-2.8-4.9s-0.8-4.1-0.8-6.5
		c0-1.4,0.1-3.2,0.4-5c0.3-2,0.6-3.7,1-5.4l8.9-42h-12.9l2.4-10.5h12.7l4-18.8c0.2-0.1,0.9-0.3,2.3-0.7c1.3-0.4,2.8-0.8,4.3-1.2
		c1.5-0.5,3.1-0.9,4.3-1.3c1.3-0.4,2.1-0.6,2.3-0.7l-4.7,22.8h19.5L2822.4,692.1z"/>
	<path class="st1" d="M2897.1,710.1c0,6.8-0.9,13.3-2.9,19.5c-2,6.2-4.7,11.5-8.3,16.1c-3.6,4.6-8,8.2-13.3,10.9
		c-5.2,2.7-11.1,4-17.6,4c-4.4,0-8.4-0.7-11.9-2.2c-3.5-1.4-6.6-3.4-9.1-6.1c-2.5-2.7-4.4-5.9-5.8-9.6c-1.3-3.7-2-8-2-12.7
		c0-7.1,1-13.7,3.1-19.9c2.1-6.2,4.9-11.5,8.5-16.1c3.7-4.5,8.1-8.1,13.3-10.7c5.1-2.6,10.8-3.9,17.1-3.9c4.3,0,8.3,0.7,11.8,2.2
		c3.5,1.4,6.6,3.4,9.1,6.1s4.4,5.9,5.9,9.6C2896.4,701.1,2897.1,705.5,2897.1,710.1z M2884.4,710.7c0-3.3-0.4-6.2-1.2-8.7
		c-0.8-2.6-2-4.6-3.4-6.4s-3.2-3.1-5.2-4c-2.1-0.9-4.3-1.4-6.9-1.4c-4.4,0-8.4,1.1-11.9,3.4c-3.6,2.3-6.6,5.2-9.1,9
		c-2.5,3.7-4.3,7.9-5.7,12.6c-1.3,4.7-2,9.5-2,14.4c0,3.1,0.4,6,1.1,8.4c0.8,2.6,1.9,4.7,3.3,6.5c1.4,1.7,3.2,3.2,5.2,4.1
		c2.1,0.9,4.4,1.4,7,1.4c4.4,0,8.5-1.1,12-3.4c3.5-2.3,6.6-5.2,9.1-8.9c2.5-3.7,4.3-7.9,5.7-12.7
		C2883.8,720.5,2884.4,715.6,2884.4,710.7z"/>
	<path class="st1" d="M2971.4,734.1c-0.4,2-0.8,4-1.1,6.5c-0.4,2.4-0.7,4.7-1,7.1c-0.3,2.4-0.5,4.5-0.7,6.5
		c-0.2,2.1-0.3,3.6-0.3,4.6h-12.9c0-1,0.1-2.2,0.2-3.6c0.1-1.4,0.2-2.9,0.4-4.3c0.2-1.5,0.3-3,0.5-4.4c0.2-1.4,0.4-2.7,0.5-3.8h-0.3
		c-1.5,2.5-3.2,4.8-4.7,7c-1.6,2.2-3.4,4.1-5.4,5.8c-2,1.6-4.1,3-6.6,3.9c-2.5,0.9-5.2,1.4-8.5,1.4c-3.4,0-6.5-0.6-9.3-1.9
		c-2.8-1.2-5.1-3-7.2-5.4c-2.1-2.4-3.6-5.4-4.6-9c-1.1-3.6-1.6-7.8-1.6-12.6c0-2.9,0.3-6.3,0.9-10c0.6-3.7,1.6-7.5,3.1-11.4
		s3.3-7.6,5.8-11.3c2.4-3.7,5.4-7,8.9-9.9s7.7-5.2,12.6-7c4.8-1.7,10.4-2.7,16.8-2.7c4,0,8.1,0.3,12.5,0.9c4.2,0.6,8.5,1.3,12.8,2.2
		L2971.4,734.1z M2967.8,691.8c-1.7-0.4-3.8-0.7-6.2-1c-2.4-0.3-4.5-0.4-6.6-0.4c-4.3,0-8.2,0.7-11.5,2.1c-3.3,1.3-6.3,3.2-8.7,5.5
		c-2.5,2.3-4.5,4.8-6.2,7.7s-3,5.9-4,9c-1,3.1-1.7,6.1-2.2,9.1c-0.4,3-0.6,5.7-0.6,8c0,2.9,0.2,5.5,0.7,7.7c0.5,2.3,1.3,4.2,2.4,5.9
		s2.5,2.9,4.1,3.7c1.6,0.9,3.7,1.3,6,1.3c2.5,0,4.8-0.5,7-1.5c2.2-1,4.2-2.5,6.2-4.2c2-1.7,3.6-3.8,5.2-6.1c1.5-2.3,3-4.7,4.2-7.3
		c1.2-2.6,2.4-5.2,3.2-7.9c0.9-2.7,1.5-5.2,2.2-7.8L2967.8,691.8z M2961.5,666.9l-18-24.7h11.5l15.6,24.7H2961.5z"/>
	<path class="st1" d="M3065.6,700.8c0,0.7-0.1,1.7-0.3,3.1c-0.2,1.3-0.4,2.7-0.7,4.2c-0.3,1.5-0.5,3-0.8,4.5
		c-0.3,1.4-0.5,2.8-0.8,3.8l-9,42.3h-12.6l9.5-45.2c0.2-0.8,0.4-1.7,0.6-2.8c0.2-1,0.4-2.2,0.5-3.2s0.3-2.1,0.4-2.9
		c0.1-0.9,0.1-1.5,0.1-2.1c0-3.8-0.9-6.8-2.8-9.1c-1.9-2.2-4.5-3.3-8.1-3.3c-3.3,0-6.6,1-9.9,3c-3.3,2-6.3,4.4-9.1,7.5
		c-2.8,3-5.1,6.4-7.1,10s-3.3,7.1-4,10.5l-8,37.7H2991l11.9-55.1c0.4-2,0.8-4,1.2-6.2s0.8-4.2,1.1-6.2c0.3-2,0.6-3.8,0.9-5.6
		c0.2-1.7,0.4-3.1,0.6-4.2h12c-0.2,2-0.5,4-0.9,6.2c-0.3,2.2-0.6,4.1-0.9,5.9c-0.3,2.2-0.6,4.2-1,6.2h0.3c1.7-2.8,3.7-5.4,5.9-7.8
		c2.2-2.5,4.4-4.5,6.9-6.4c2.5-1.9,5.1-3.3,7.9-4.3s5.8-1.5,8.7-1.5c3.4,0,6.4,0.5,8.9,1.5c2.5,1,4.5,2.5,6.2,4.3
		c1.6,1.9,2.9,4.1,3.6,6.7C3065.2,694.9,3065.6,697.7,3065.6,700.8z"/>
	<path class="st1" d="M3183.9,735c-0.3,1.6-0.7,3.5-1,5.8s-0.6,4.5-0.8,6.8s-0.5,4.4-0.6,6.5c-0.2,2.1-0.3,3.6-0.3,4.6h-12.9
		c0-0.8,0.1-2,0.2-3.4c0.1-1.4,0.3-2.9,0.4-4.5c0.2-1.5,0.4-3.1,0.5-4.5c0.2-1.4,0.4-2.6,0.5-3.5h-0.3c-1.9,2.9-3.6,5.5-5.5,7.7
		c-1.9,2.3-3.7,4.1-5.8,5.6c-2.1,1.4-4.1,2.6-6.4,3.4c-2.3,0.8-4.7,1.1-7.5,1.1c-3.5,0-6.7-0.6-9.5-1.9c-2.8-1.2-5.2-3.1-7.2-5.6
		s-3.5-5.5-4.5-9.1c-1-3.6-1.5-7.7-1.5-12.3c0-3.7,0.4-7.6,1.1-11.6c0.8-4,2-7.9,3.6-11.8s3.7-7.5,6.2-11c2.5-3.5,5.5-6.5,9-9.2
		c3.5-2.6,7.4-4.7,11.9-6.2c4.4-1.5,9.5-2.3,15-2.3c2.8,0,5.5,0.2,7.8,0.5c2.4,0.3,4.5,0.7,6.3,1.1l7.8-36.9h12.2L3183.9,735z
		 M3180.7,692.1c-2-0.5-3.9-1-6-1.3c-2.1-0.3-4.3-0.5-6.7-0.5c-4.3,0-8.2,0.7-11.5,2.1c-3.3,1.3-6.3,3.2-8.7,5.5
		c-2.5,2.3-4.5,4.8-6.3,7.7c-1.6,2.9-3.1,5.9-4.1,8.9c-1,3.1-1.7,6.1-2.2,9c-0.4,3-0.6,5.6-0.6,7.9c0,2.8,0.2,5.4,0.7,7.7
		c0.5,2.3,1.2,4.3,2.4,6c1,1.6,2.5,3,4.2,3.8c1.7,0.9,3.8,1.3,6.2,1.3c2.5,0,4.8-0.5,7-1.5c2.2-1,4.2-2.5,6.2-4.3
		c2-1.9,3.6-3.9,5.2-6.3c1.5-2.4,3-4.8,4.2-7.5c1.2-2.7,2.4-5.4,3.2-8.1c0.9-2.8,1.5-5.4,2.2-7.9L3180.7,692.1z"/>
	<path class="st1" d="M3231,758.5c-1.2,0.4-2.7,0.7-4.2,1c-1.5,0.2-3.2,0.4-4.7,0.4c-5,0-8.9-1.2-11.4-3.8c-2.5-2.6-3.8-6-3.8-10.2
		c0-1.2,0.1-2.8,0.4-4.4c0.2-1.7,0.6-3.8,1.2-6.4l11.2-53.4h12.6l-11.3,53.7c-0.4,2.2-0.7,3.7-0.9,4.9c-0.2,1.1-0.3,2.2-0.3,3
		c0,2.1,0.5,3.6,1.6,4.7s2.9,1.6,5.4,1.6c1.3,0,2.5-0.1,3.4-0.2c1-0.1,1.9-0.4,2.8-0.7L3231,758.5z M3239.9,654
		c0,2.3-0.7,4.2-2.3,5.8c-1.5,1.6-3.4,2.4-5.7,2.4c-2.2,0-4.1-0.8-5.8-2.4c-1.6-1.5-2.5-3.5-2.5-5.9c0-2.3,0.8-4.2,2.5-5.7
		c1.6-1.4,3.6-2.2,5.8-2.2c2.2,0,4.1,0.7,5.7,2.3C3239,649.9,3239.9,651.8,3239.9,654z"/>
	<path class="st1" d="M3311.8,699.7c0,4.1-0.9,7.8-2.7,11.1c-1.9,3.3-4.8,6.2-9,8.5c-4.2,2.4-9.7,4.2-16.5,5.6s-15.2,2-25.3,2.1
		c-0.1,0.5-0.1,1.1-0.1,1.7c0,0.5,0,1,0,1.5c0,2.7,0.4,5.2,1.1,7.7c0.7,2.5,2,4.5,3.5,6.4c1.5,1.9,3.6,3.2,6.1,4.3
		c2.5,1,5.5,1.5,8.9,1.5c3.5,0,7.3-0.6,11.4-2s8.1-3.2,11.8-5.7l-2.4,12.2c-2.8,1.6-6.1,3-9.9,4.2c-3.8,1.2-8.1,1.9-12.9,1.9
		c-5.7,0-10.5-0.9-14.4-2.7s-7-4.1-9.5-7c-2.4-3-4.1-6.4-5.1-10.2s-1.5-7.9-1.5-12.1c0-4.5,0.5-8.9,1.5-13.1c1-4.2,2.5-8.1,4.2-11.7
		c1.9-3.6,4-6.9,6.6-9.9c2.6-3,5.4-5.6,8.5-7.6c3.2-2.1,6.5-3.7,10-4.9c3.6-1.1,7.3-1.7,11.1-1.7c4,0,7.5,0.5,10.5,1.5
		c3.1,1,5.6,2.5,7.6,4.3c2.1,1.9,3.6,3.9,4.6,6.4C3311.2,694.6,3311.8,696.9,3311.8,699.7z M3299.2,700.2c0-3.2-1.1-5.7-3.5-7.4
		c-2.4-1.7-5.5-2.7-9.3-2.7c-3.1,0-6.1,0.6-8.9,2c-2.9,1.3-5.5,3.2-7.9,5.5c-2.5,2.3-4.5,5.1-6.3,8.3c-1.7,3.3-3.1,6.8-3.8,10.5
		c7.2,0,13.3-0.4,18.3-1.1c5-0.7,9.2-1.7,12.2-3.2c3.2-1.4,5.5-3.1,6.9-5.1C3298.5,705.1,3299.2,702.8,3299.2,700.2z M3273.4,782.4
		c-2.1,0-3.8-0.7-5.2-2.2c-1.4-1.4-2.2-3.2-2.2-5.2s0.7-3.8,2.3-5.1s3.3-2.1,5.2-2.1c2.1,0,3.8,0.7,5.2,2.1c1.4,1.3,2.2,3.1,2.2,5.1
		s-0.7,3.8-2.2,5.2C3277.2,781.7,3275.5,782.4,3273.4,782.4z M3301.4,666.9l-8.5-17.4l-16.1,17.4h-9.2L3289,642h10l10.9,24.9H3301.4
		z"/>
	<path class="st1" d="M3393.6,700.8c0,0.7-0.1,1.7-0.3,3.1c-0.2,1.3-0.4,2.7-0.7,4.2c-0.3,1.5-0.5,3-0.8,4.5
		c-0.3,1.4-0.5,2.8-0.8,3.8l-9,42.3h-12.6l9.5-45.2c0.2-0.8,0.4-1.7,0.6-2.8s0.4-2.2,0.5-3.2s0.3-2.1,0.4-2.9s0.1-1.5,0.1-2.1
		c0-3.8-0.9-6.8-2.8-9.1c-1.9-2.2-4.5-3.3-8.1-3.3c-3.3,0-6.6,1-9.9,3c-3.3,2-6.3,4.4-9.1,7.5s-5.1,6.4-7.1,10s-3.3,7.1-4,10.5
		l-8,37.7H3319l11.9-55.1c0.4-2,0.8-4,1.2-6.2s0.8-4.2,1.1-6.2c0.3-2,0.6-3.8,0.9-5.6c0.2-1.7,0.4-3.1,0.6-4.2h12
		c-0.2,2-0.5,4-0.9,6.2c-0.3,2.2-0.6,4.1-0.9,5.9c-0.3,2.2-0.6,4.2-1,6.2h0.3c1.7-2.8,3.7-5.4,5.9-7.8c2.2-2.5,4.4-4.5,6.9-6.4
		c2.5-1.9,5.1-3.3,7.9-4.3s5.8-1.5,8.7-1.5c3.4,0,6.4,0.5,8.9,1.5c2.5,1,4.5,2.5,6.2,4.3c1.6,1.9,2.9,4.1,3.6,6.7
		C3393.2,694.9,3393.6,697.7,3393.6,700.8z"/>
</g>
</svg>
