<?xml version="1.0" encoding="utf-8"?>
<!-- Generator: Adobe Illustrator 22.0.0, SVG Export Plug-In . SVG Version: 6.00 Build 0)  -->
<svg version="1.1" id="Layer_1" xmlns="http://www.w3.org/2000/svg" xmlns:xlink="http://www.w3.org/1999/xlink" x="0px" y="0px"
	 viewBox="0 0 3235 802" style="enable-background:new 0 0 3235 802;" xml:space="preserve">
<style type="text/css">
	.st0{fill:#0054A5;}
	.st1{fill:#F6921E;}
	.st2{fill:#494949;}
</style>
<g id="logo">
	<polygon class="st0" points="1150,40.1 934,40.1 711,292.9 756.2,39.7 547.6,39.7 509.6,251.8 312.5,251.8 350.4,39.7 141.8,39.7 
		29.5,668.5 238.2,668.5 281.7,424.8 478.8,424.8 435.3,668.5 643.9,668.5 694.6,384.6 818.4,668.5 1036.1,668.5 880.2,337.2 	"/>
	<polygon class="st1" points="1045.9,709.8 26.2,709.8 29.3,697 1048.7,697 	"/>
	<polygon class="st0" points="27,799.9 10,799.9 23,739.4 40,739.4 	"/>
	<polygon class="st0" points="168.8,739.4 180.6,739.4 167.7,799.9 155.1,799.9 139.5,756.7 139.4,756.7 130.2,799.9 118.3,799.9 
		131.3,739.4 144.6,739.4 159.7,781.5 159.9,781.5 	"/>
	<path class="st0" d="M311.6,759.2c-0.3-3.7-0.8-10.5-11.2-10.5c-6.1,0-15.9,4.1-19.5,21.1c-2.3,10.9-0.1,20.6,10.6,20.6
		c7,0,12.7-4,15.8-11.4h12.6c-5.4,13.2-15.9,22.3-31.1,22.3c-16.1,0-25.3-10.9-21-31.7c4.5-21.1,19.1-31.9,34.7-31.9
		c18.2,0,22.9,12.5,21.6,21.4L311.6,759.2L311.6,759.2z"/>
	<path class="st0" d="M438,790.8c6.9,0,17.4-4.2,21-21.1c3.6-16.9-5.2-21.2-11.9-21.2c-6.9,0-17.4,4.3-21,21.2
		C422.5,786.5,431.1,790.8,438,790.8z M449.3,737.9c8,0,28.4,3.5,22.4,31.8c-6.1,28.3-27.8,31.8-35.9,31.8c-8,0-28.4-3.5-22.4-31.8
		C419.4,741.3,441.2,737.9,449.3,737.9z"/>
	<polygon class="st0" points="582.1,799.9 569.4,799.9 580,750.2 561.7,750.2 563.9,739.4 613.2,739.4 611,750.2 592.7,750.2 	"/>
	<polygon class="st0" points="747.5,750.2 715.3,750.2 712.6,762.9 742.2,762.9 739.8,773.5 710.3,773.5 707,789.2 740.6,789.2 
		738.3,799.9 692.3,799.9 705.1,739.4 749.7,739.4 	"/>
	<path class="st0" d="M880.3,759.2c-0.2-3.7-0.7-10.5-11.1-10.5c-6.1,0-15.9,4.1-19.5,21.1c-2.3,10.9-0.1,20.6,10.6,20.6
		c7.1,0,12.7-4,15.9-11.4h12.6c-5.4,13.2-15.9,22.3-31.1,22.3c-16.1,0-25.3-10.9-20.9-31.7c4.5-21.1,19-31.9,34.7-31.9
		c18.1,0,22.9,12.5,21.6,21.4L880.3,759.2L880.3,759.2z"/>
	<polygon class="st0" points="996.3,772.8 990.6,799.9 978,799.9 990.8,739.4 1003.5,739.4 998.6,762.4 1022.2,762.4 1027.1,739.4 
		1039.8,739.4 1026.8,799.9 1014.2,799.9 1020,772.8 	"/>
	<path class="st0" d="M54.6,703.4c0,8.5-6.9,15.3-15.4,15.3s-15.4-6.8-15.4-15.3c0-8.5,6.9-15.3,15.4-15.3S54.6,694.9,54.6,703.4z"
		/>
	<path class="st0" d="M1199.3,37.9c1.4,0,2.7-0.1,4-0.3c1.2-0.2,2.3-0.6,3.3-1.2c0.9-0.6,1.7-1.4,2.2-2.4c0.6-1,0.9-2.4,0.9-4
		c0-2.2-0.6-4-1.9-5.4c-1.3-1.4-3.3-2.2-6.1-2.2H1187v15.4H1199.3z M1181.1,17.5h20.9c4.2,0,7.5,1.1,9.9,3.2
		c2.4,2.1,3.6,4.9,3.6,8.4c0,2.7-0.6,5-1.8,7c-1.2,2.1-3.2,3.4-5.9,4.2v0.1c1.3,0.3,2.4,0.7,3.2,1.2c0.8,0.6,1.5,1.3,2,2.1
		c0.5,0.8,0.9,1.7,1.1,2.7c0.2,1,0.4,2,0.5,3.1c0.1,1.1,0.2,2.2,0.2,3.3c0.1,1.1,0.2,2.3,0.3,3.3c0.1,1.1,0.4,2.1,0.7,3.1
		c0.3,1,0.8,1.9,1.4,2.6h-6.6c-0.4-0.5-0.7-1.1-0.8-1.7c-0.1-0.6-0.2-1.4-0.3-2.3c-0.1-0.9-0.1-1.9-0.2-3c0-1.1-0.2-2.5-0.4-4
		c-0.2-1.1-0.4-2.1-0.6-3.1c-0.3-1-0.7-1.8-1.2-2.6c-0.5-0.7-1.3-1.3-2.2-1.8c-0.9-0.4-2.1-0.7-3.5-0.7h-14.4v18.9h-5.9L1181.1,17.5
		L1181.1,17.5z"/>
	<path class="st0" d="M1198.5,9c-18,0-32.7,14.6-32.7,32.6c0,18,14.7,32.6,32.7,32.6c18,0,32.7-14.6,32.7-32.6
		C1231.2,23.6,1216.5,9,1198.5,9L1198.5,9z M1198.5,78.8c-20.7,0-37.4-16.7-37.4-37.2s16.8-37.2,37.4-37.2
		c20.6,0,37.4,16.7,37.4,37.2C1235.9,62.1,1219.2,78.8,1198.5,78.8L1198.5,78.8z"/>
</g>
<g>
	<path class="st2" d="M1286.6,464.3c0,0.7-0.1,1.7-0.3,3c-0.2,1.3-0.4,2.8-0.7,4.3c-0.3,1.5-0.6,3-0.8,4.5c-0.3,1.5-0.5,2.8-0.7,3.8
		l-9.1,42.4h-12.4l9.4-45.3c0.2-0.9,0.4-1.8,0.6-2.9c0.2-1.1,0.4-2.1,0.6-3.2c0.2-1,0.3-2,0.4-2.9c0.1-0.9,0.2-1.6,0.2-2.1
		c0-4-0.9-7-2.6-9.2c-1.7-2.2-4.4-3.2-8-3.2c-1.9,0-3.9,0.4-6,1.3c-2.1,0.9-4.1,2.1-6,3.6c-2,1.5-3.8,3.3-5.6,5.2s-3.5,4.2-5,6.4
		c-1.5,2.3-2.8,4.7-3.9,7c-1.1,2.4-1.9,4.8-2.4,7l-8.1,37.9h-12.6l9.6-45.3c0.2-0.9,0.4-1.8,0.6-2.9c0.2-1.1,0.4-2.1,0.6-3.2
		c0.2-1,0.3-2,0.4-2.9c0.1-0.9,0.2-1.6,0.2-2.1c0-4-0.9-7-2.7-9.2s-4.5-3.2-7.9-3.2c-2,0-4,0.4-6.1,1.3c-2.1,0.9-4.1,2.1-6.1,3.7
		c-2,1.6-3.9,3.4-5.7,5.3c-1.8,2.1-3.5,4.2-5,6.5c-1.5,2.3-2.8,4.7-3.8,7c-1,2.4-1.8,4.8-2.3,7l-8.1,37.8h-12.6l12-55.2
		c0.4-2,0.8-4.1,1.2-6.1c0.4-2.2,0.8-4.2,1.1-6.2c0.4-2,0.7-3.9,0.9-5.5c0.3-1.7,0.5-3.2,0.6-4.3h12.1c-0.3,2-0.6,4.1-0.9,6.1
		c-0.4,2.2-0.7,4.2-0.9,5.9c-0.3,2.1-0.6,4.2-1,6.2h0.3c1.8-3,3.8-5.6,6-8.1c2.1-2.5,4.4-4.6,6.8-6.4c2.4-1.8,4.9-3.2,7.5-4.2
		c2.6-1,5.3-1.5,8-1.5c3.3,0,6.1,0.5,8.3,1.5c2.3,1,4.3,2.3,5.8,4.1c1.6,1.8,2.7,3.9,3.5,6.3c0.8,2.5,1.3,5.2,1.5,8.2
		c1.9-2.8,3.9-5.4,6.1-7.9c2.2-2.5,4.5-4.6,6.9-6.3c2.5-1.8,5.1-3.2,7.8-4.3c2.8-1,5.7-1.6,8.7-1.6c6.5,0,11.3,1.9,14.6,5.6
		C1284.9,452.3,1286.6,457.6,1286.6,464.3z"/>
	<path class="st2" d="M1364.5,497.5c-0.4,1.9-0.8,4.1-1.2,6.4c-0.4,2.4-0.7,4.8-1,7.1s-0.5,4.6-0.7,6.5c-0.2,2-0.3,3.6-0.3,4.7
		h-12.9c0-1,0.1-2.2,0.2-3.7c0.1-1.4,0.2-2.9,0.4-4.4c0.2-1.5,0.4-3,0.5-4.5c0.2-1.5,0.4-2.7,0.6-3.8h-0.3c-1.6,2.5-3.2,4.8-4.8,7
		c-1.6,2.2-3.4,4.2-5.4,5.7c-2,1.7-4.2,3-6.6,4c-2.4,1-5.3,1.5-8.5,1.5c-3.4,0-6.5-0.6-9.3-1.8c-2.8-1.2-5.3-3-7.3-5.4
		c-2-2.4-3.6-5.3-4.7-9c-1.1-3.6-1.6-7.8-1.6-12.6c0-3,0.3-6.2,0.9-10c0.6-3.8,1.6-7.5,3.1-11.4s3.4-7.6,5.8-11.4
		c2.4-3.7,5.4-7,8.9-9.9c3.6-3,7.7-5.2,12.6-7c4.9-1.8,10.4-2.7,16.8-2.7c4.1,0,8.2,0.3,12.5,0.9c4.3,0.6,8.5,1.3,12.8,2.2
		L1364.5,497.5z M1361.1,455c-1.8-0.4-3.9-0.8-6.3-1.1c-2.4-0.3-4.6-0.5-6.7-0.5c-4.4,0-8.2,0.7-11.6,2.1c-3.4,1.4-6.3,3.2-8.7,5.4
		c-2.5,2.3-4.6,4.8-6.3,7.7c-1.7,3-3.1,5.9-4.1,8.9c-1,3.1-1.7,6-2.2,9c-0.4,3-0.6,5.6-0.6,8.1c0,2.9,0.3,5.4,0.8,7.7
		c0.5,2.3,1.3,4.3,2.4,5.8c1.1,1.6,2.5,2.9,4.2,3.8s3.7,1.3,6.1,1.3c2.5,0,4.9-0.5,7.1-1.6c2.2-1,4.3-2.5,6.2-4.2
		c1.9-1.8,3.7-3.8,5.3-6.1c1.6-2.3,3-4.8,4.3-7.3c1.3-2.6,2.4-5.2,3.2-7.9c0.9-2.7,1.6-5.3,2.2-7.8L1361.1,455z"/>
	<path class="st2" d="M1461,464.2c0,0.8-0.1,1.8-0.3,3.1s-0.4,2.7-0.7,4.3c-0.3,1.5-0.6,3-0.8,4.5c-0.3,1.5-0.5,2.8-0.8,3.9l-9,42.4
		h-12.6l9.4-45.3c0.2-0.8,0.4-1.8,0.6-2.8c0.2-1.1,0.4-2.1,0.5-3.2c0.2-1.1,0.3-2,0.4-2.9s0.2-1.6,0.2-2.1c0-3.9-0.9-6.8-2.8-9.1
		c-1.9-2.2-4.6-3.4-8.2-3.4c-3.4,0-6.7,1-9.9,3c-3.3,2-6.4,4.5-9.1,7.5c-2.8,3.1-5.2,6.3-7.2,10c-2,3.7-3.4,7.1-4.1,10.5l-8.1,37.8
		H1386l12-55.2c0.4-2,0.8-4.1,1.2-6.1c0.4-2.2,0.8-4.2,1.1-6.2c0.4-2,0.7-3.9,0.9-5.5c0.3-1.7,0.5-3.2,0.6-4.3h12.1
		c-0.3,2-0.6,4.1-0.9,6.1c-0.4,2.2-0.7,4.2-0.9,5.9c-0.3,2.1-0.6,4.2-1,6.2h0.3c1.8-2.8,3.8-5.3,5.9-7.8c2.2-2.5,4.5-4.6,7-6.4
		c2.5-1.9,5.2-3.3,7.9-4.4c2.8-1.1,5.8-1.6,8.8-1.6c3.5,0,6.4,0.5,8.8,1.6c2.5,1,4.6,2.5,6.2,4.4c1.7,1.9,2.9,4.1,3.7,6.7
		C1460.6,458.2,1461,461,1461,464.2z"/>
	<path class="st2" d="M1535,516.7c-1.3,6-3,11.6-5,16.7c-2.1,5.1-4.8,9.5-8.2,13.3c-3.4,3.8-7.7,6.6-12.6,8.8
		c-5,2.1-11.1,3.2-18.3,3.2c-5,0-9.2-0.6-12.9-1.8c-3.7-1.2-7.1-2.6-10-4.2l2.4-11.6c3.2,1.9,6.6,3.6,10.1,4.8c3.6,1.3,7.5,2,11.6,2
		c4.5,0,8.4-0.7,11.7-2c3.3-1.3,6.2-3.3,8.5-5.7c2.4-2.6,4.4-5.6,6-9.3c1.6-3.7,2.9-7.9,4-12.6l2.7-12.1h-0.3
		c-1.9,3.1-3.8,5.7-5.7,8c-1.9,2.3-3.8,4.1-5.8,5.5c-2,1.5-4.2,2.6-6.4,3.4c-2.2,0.7-4.7,1.1-7.4,1.1c-3.5,0-6.7-0.6-9.4-1.9
		c-2.9-1.2-5.3-3.1-7.3-5.4s-3.6-5.4-4.7-9.1c-1.1-3.7-1.6-7.8-1.6-12.6c0-4.5,0.5-8.9,1.5-13.3s2.4-8.4,4.3-12.3
		c1.9-3.9,4.2-7.4,6.9-10.7c2.7-3.3,5.8-6,9.2-8.4s7.3-4.3,11.3-5.5s8.5-2,13.2-2c4.7,0,9.4,0.3,14.1,0.9c4.7,0.6,9,1.3,13,2.1
		L1535,516.7z M1535.6,455c-1.7-0.4-3.8-0.8-6.3-1.1c-2.5-0.3-5.1-0.5-7.8-0.5c-4.8,0-9.1,1.1-13,3.3c-3.9,2.2-7.4,5.1-10.2,8.9
		c-2.9,3.8-5.1,8.1-6.7,13.1c-1.6,4.9-2.4,10.3-2.4,15.8c0,2.7,0.2,5.2,0.7,7.5c0.5,2.3,1.2,4.4,2.3,5.9c1,1.7,2.4,3,4,4
		c1.7,1,3.7,1.5,6.1,1.5c2.8,0,5.4-0.6,7.7-1.8c2.4-1.2,4.5-2.7,6.5-4.7c2-1.9,3.8-4.1,5.3-6.5c1.6-2.5,2.9-4.9,4.1-7.5
		c1.2-2.6,2.2-5.1,3-7.6c0.8-2.5,1.5-4.8,1.9-6.7L1535.6,455z"/>
	<path class="st2" d="M1668.9,498.5c-0.4,1.6-0.7,3.6-1,5.8c-0.3,2.3-0.6,4.6-0.9,6.8c-0.3,2.3-0.5,4.5-0.6,6.4
		c-0.2,2-0.3,3.6-0.3,4.7h-12.9c0-0.9,0.1-2,0.2-3.5c0.1-1.5,0.3-3,0.5-4.5c0.2-1.6,0.4-3.1,0.6-4.5c0.2-1.4,0.4-2.6,0.5-3.5h-0.3
		c-1.8,3-3.7,5.5-5.5,7.7c-1.8,2.3-3.8,4.1-5.8,5.5c-2,1.5-4.2,2.6-6.5,3.4c-2.3,0.8-4.8,1.1-7.6,1.1c-3.6,0-6.8-0.6-9.5-1.9
		c-2.9-1.3-5.3-3.1-7.3-5.5s-3.5-5.4-4.6-9.1c-1.1-3.6-1.6-7.7-1.6-12.5c0-3.8,0.4-7.6,1.2-11.7c0.8-4.1,2-8,3.7-11.9
		c1.7-3.9,3.8-7.5,6.3-11s5.6-6.5,9-9.1c3.5-2.6,7.5-4.7,12-6.2c4.5-1.6,9.5-2.3,15.1-2.3c2.8,0,5.5,0.2,7.8,0.6
		c2.4,0.4,4.6,0.8,6.3,1.2l2.8-13.3h-25.1l2.2-10.1h25.1l3-13.7h12.3l-2.9,13.7h10.3l-2.2,10.1h-10.2L1668.9,498.5z M1665.6,455.3
		c-1.9-0.6-4-1-6.1-1.3c-2.1-0.3-4.4-0.5-6.8-0.5c-4.4,0-8.2,0.7-11.6,2.1c-3.4,1.4-6.3,3.2-8.8,5.4c-2.5,2.3-4.6,4.8-6.3,7.7
		c-1.7,2.9-3.1,5.8-4.1,8.9s-1.8,6-2.2,9c-0.4,3-0.6,5.6-0.6,8c0,2.9,0.2,5.3,0.7,7.7c0.5,2.3,1.3,4.4,2.4,5.9
		c1.1,1.7,2.5,3,4.2,3.9c1.7,0.9,3.8,1.4,6.3,1.4s4.9-0.5,7.1-1.6c2.2-1.1,4.3-2.5,6.2-4.4c1.9-1.8,3.7-3.9,5.3-6.2
		c1.6-2.4,3-4.8,4.3-7.5c1.3-2.7,2.4-5.3,3.2-8.1c0.9-2.8,1.6-5.3,2.2-7.9L1665.6,455.3z"/>
	<path class="st2" d="M1759,463c0,4.1-0.9,7.8-2.7,11.2c-1.8,3.4-4.9,6.2-9,8.6c-4.2,2.4-9.7,4.3-16.6,5.5c-6.9,1.3-15.4,2-25.4,2.1
		c-0.1,0.6-0.2,1.1-0.2,1.8c0,0.6,0,1.1,0,1.5c0,2.7,0.4,5.2,1.1,7.7c0.8,2.4,1.9,4.6,3.5,6.3c1.6,1.8,3.7,3.3,6.2,4.4
		c2.5,1.1,5.5,1.6,8.9,1.6s7.4-0.7,11.5-2c4.2-1.3,8.1-3.3,11.9-5.7l-2.4,12.3c-2.8,1.6-6.1,3.1-9.9,4.3c-3.9,1.2-8.1,1.8-12.9,1.8
		c-5.8,0-10.5-0.9-14.4-2.7c-3.9-1.8-7.1-4.2-9.4-7c-2.4-3-4.2-6.3-5.2-10.2c-1.1-3.9-1.6-7.9-1.6-12.2c0-4.6,0.5-8.9,1.5-13.1
		c1-4.2,2.5-8.1,4.3-11.8c1.9-3.7,4.1-6.9,6.7-9.9c2.6-3,5.5-5.5,8.5-7.6c3.2-2.1,6.5-3.8,10.1-4.9c3.6-1.2,7.4-1.8,11.1-1.8
		c4,0,7.6,0.5,10.5,1.6c3.1,1.1,5.6,2.5,7.7,4.4c2.1,1.9,3.6,4,4.7,6.4C1758.4,457.7,1759,460.3,1759,463z M1746.3,463.6
		c0-3.2-1.2-5.6-3.5-7.4c-2.4-1.8-5.5-2.7-9.3-2.7c-3.1,0-6.1,0.7-8.9,2c-2.9,1.3-5.6,3.2-7.9,5.5c-2.4,2.4-4.6,5.1-6.3,8.4
		c-1.8,3.3-3.1,6.7-3.9,10.5c7.3,0,13.4-0.4,18.4-1.1c5.1-0.7,9.1-1.8,12.3-3.2c3.2-1.4,5.5-3.2,7-5.1
		C1745.6,468.5,1746.3,466.2,1746.3,463.6z M1745.8,430.2l-8.6-11.3l-16.2,11.3h-9.1l21.5-18.8h10.1l11,18.8H1745.8z M1750.9,418.7
		l17.7-18.6h12.7l-20.8,18.6H1750.9z"/>
	<path class="st2" d="M1842.7,464.2c0,0.8-0.1,1.8-0.3,3.1c-0.2,1.3-0.4,2.7-0.7,4.3c-0.3,1.5-0.6,3-0.8,4.5
		c-0.3,1.5-0.5,2.8-0.8,3.9l-9,42.4h-12.6l9.4-45.3c0.2-0.8,0.4-1.8,0.6-2.8c0.2-1.1,0.4-2.1,0.5-3.2c0.2-1.1,0.3-2,0.4-2.9
		c0.1-0.9,0.2-1.6,0.2-2.1c0-3.9-0.9-6.8-2.8-9.1c-1.9-2.2-4.6-3.4-8.2-3.4c-3.4,0-6.7,1-9.9,3c-3.3,2-6.4,4.5-9.1,7.5
		c-2.8,3.1-5.2,6.3-7.2,10c-2,3.7-3.4,7.1-4.1,10.5l-8.1,37.8h-12.6l12-55.2c0.4-2,0.8-4.1,1.2-6.1c0.4-2.2,0.8-4.2,1.1-6.2
		c0.4-2,0.7-3.9,0.9-5.5c0.3-1.7,0.5-3.2,0.6-4.3h12.1c-0.3,2-0.6,4.1-0.9,6.1c-0.4,2.2-0.7,4.2-0.9,5.9c-0.3,2.1-0.6,4.2-1,6.2h0.3
		c1.8-2.8,3.8-5.3,5.9-7.8c2.2-2.5,4.5-4.6,7-6.4c2.5-1.9,5.2-3.3,7.9-4.4c2.8-1.1,5.8-1.6,8.8-1.6c3.5,0,6.4,0.5,8.8,1.6
		c2.5,1,4.6,2.5,6.2,4.4c1.7,1.9,2.9,4.1,3.7,6.7C1842.3,458.2,1842.7,461,1842.7,464.2z"/>
	<path class="st2" d="M1961,516.7c-1.3,6-3,11.6-5,16.7c-2.1,5.1-4.8,9.5-8.2,13.3c-3.4,3.8-7.7,6.6-12.6,8.8
		c-5,2.1-11.1,3.2-18.3,3.2c-5,0-9.2-0.6-12.9-1.8c-3.7-1.2-7.1-2.6-10-4.2l2.4-11.6c3.2,1.9,6.6,3.6,10.1,4.8c3.6,1.3,7.5,2,11.6,2
		c4.5,0,8.4-0.7,11.7-2c3.3-1.3,6.2-3.3,8.5-5.7c2.4-2.6,4.4-5.6,6-9.3c1.6-3.7,2.9-7.9,4-12.6l2.7-12.1h-0.3
		c-1.9,3.1-3.8,5.7-5.7,8c-1.9,2.3-3.8,4.1-5.8,5.5c-2,1.5-4.2,2.6-6.4,3.4c-2.2,0.7-4.7,1.1-7.4,1.1c-3.5,0-6.7-0.6-9.4-1.9
		c-2.9-1.2-5.3-3.1-7.3-5.4s-3.6-5.4-4.7-9.1c-1.1-3.7-1.6-7.8-1.6-12.6c0-4.5,0.5-8.9,1.5-13.3s2.4-8.4,4.3-12.3
		c1.9-3.9,4.2-7.4,6.9-10.7c2.7-3.3,5.8-6,9.2-8.4s7.3-4.3,11.3-5.5s8.5-2,13.2-2c4.7,0,9.4,0.3,14.1,0.9c4.7,0.6,9,1.3,13,2.1
		L1961,516.7z M1961.7,455c-1.7-0.4-3.8-0.8-6.3-1.1c-2.5-0.3-5.1-0.5-7.8-0.5c-4.8,0-9.1,1.1-13,3.3c-3.9,2.2-7.4,5.1-10.2,8.9
		c-2.9,3.8-5.1,8.1-6.7,13.1c-1.6,4.9-2.4,10.3-2.4,15.8c0,2.7,0.2,5.2,0.7,7.5c0.5,2.3,1.2,4.4,2.3,5.9c1,1.7,2.4,3,4,4
		c1.7,1,3.7,1.5,6.1,1.5c2.8,0,5.4-0.6,7.7-1.8c2.4-1.2,4.5-2.7,6.5-4.7c2-1.9,3.8-4.1,5.3-6.5c1.6-2.5,2.9-4.9,4.1-7.5
		c1.2-2.6,2.2-5.1,3-7.6c0.8-2.5,1.5-4.8,1.9-6.7L1961.7,455z"/>
	<path class="st2" d="M2013.8,521.9c-1.3,0.4-2.7,0.7-4.3,1c-1.6,0.3-3.2,0.4-4.8,0.4c-5.1,0-8.9-1.3-11.4-3.9
		c-2.5-2.6-3.8-5.9-3.8-10.2c0-1.3,0.1-2.8,0.4-4.5c0.3-1.7,0.7-3.9,1.2-6.3l11.3-53.5h12.6l-11.4,53.8c-0.5,2.1-0.8,3.8-1,4.9
		c-0.2,1.2-0.3,2.2-0.3,3c0,2.1,0.6,3.7,1.7,4.8c1.1,1.1,3,1.6,5.5,1.6c1.3,0,2.5-0.1,3.5-0.2s1.9-0.4,2.8-0.7L2013.8,521.9z
		 M2022.7,417.3c0,2.3-0.8,4.3-2.3,5.8c-1.6,1.6-3.5,2.4-5.8,2.4c-2.2,0-4.2-0.8-5.8-2.4c-1.7-1.6-2.5-3.6-2.5-5.8s0.8-4.2,2.5-5.6
		c1.7-1.5,3.6-2.2,5.8-2.2c2.2,0,4.1,0.8,5.7,2.3C2022,413.2,2022.7,415,2022.7,417.3z"/>
	<path class="st2" d="M2092.7,497.5c-0.4,1.9-0.8,4.1-1.2,6.4c-0.4,2.4-0.7,4.8-1,7.1c-0.3,2.4-0.5,4.6-0.7,6.5s-0.3,3.6-0.3,4.7
		h-12.9c0-1,0.1-2.2,0.2-3.7c0.1-1.4,0.2-2.9,0.4-4.4c0.2-1.5,0.4-3,0.5-4.5c0.2-1.5,0.4-2.7,0.6-3.8h-0.3c-1.6,2.5-3.2,4.8-4.8,7
		c-1.6,2.2-3.4,4.2-5.4,5.7c-2,1.7-4.2,3-6.6,4c-2.4,1-5.3,1.5-8.5,1.5c-3.4,0-6.5-0.6-9.3-1.8c-2.8-1.2-5.3-3-7.3-5.4
		c-2-2.4-3.6-5.3-4.7-9c-1.1-3.6-1.6-7.8-1.6-12.6c0-3,0.3-6.2,0.9-10c0.6-3.8,1.6-7.5,3.1-11.4s3.4-7.6,5.8-11.4
		c2.4-3.7,5.4-7,8.9-9.9c3.6-3,7.7-5.2,12.6-7c4.9-1.8,10.4-2.7,16.8-2.7c4.1,0,8.2,0.3,12.5,0.9c4.3,0.6,8.5,1.3,12.8,2.2
		L2092.7,497.5z M2089.1,455c-1.8-0.4-3.9-0.8-6.3-1.1c-2.4-0.3-4.6-0.5-6.7-0.5c-4.4,0-8.2,0.7-11.6,2.1c-3.4,1.4-6.3,3.2-8.7,5.4
		s-4.6,4.8-6.3,7.7c-1.7,3-3.1,5.9-4.1,8.9c-1,3.1-1.7,6-2.2,9c-0.4,3-0.6,5.6-0.6,8.1c0,2.9,0.3,5.4,0.8,7.7
		c0.5,2.3,1.3,4.3,2.4,5.8c1.1,1.6,2.5,2.9,4.2,3.8s3.7,1.3,6.1,1.3c2.5,0,4.9-0.5,7.1-1.6c2.2-1,4.3-2.5,6.2-4.2
		c1.9-1.8,3.7-3.8,5.3-6.1c1.6-2.3,3-4.8,4.3-7.3c1.3-2.6,2.4-5.2,3.2-7.9c0.9-2.7,1.6-5.3,2.2-7.8L2089.1,455z M2073.4,403.7
		c1-0.1,1.8-0.2,2.6-0.2c0.8-0.1,1.7-0.1,2.8-0.1c2.3,0,4.3,0.3,6,0.8c1.7,0.5,3.1,1.3,4.3,2.3c1.2,1,2,2.1,2.6,3.4
		c0.6,1.3,0.9,2.7,0.9,4.2c0,1.8-0.4,3.4-1.1,4.8c-0.7,1.5-1.7,2.8-2.9,3.9c-1.2,1.1-2.6,2-4.1,2.7s-3.1,1.1-4.8,1.3l-0.8,3.8h-8.2
		l1.8-8.7c2.9,0,5.3-0.5,7.1-1.6c1.8-1.1,2.7-2.6,2.7-4.5c0-1.3-0.4-2.4-1.3-3.2c-0.9-0.8-2.4-1.3-4.5-1.3c-0.7,0-1.5,0.1-2.4,0.2
		s-1.7,0.3-2.4,0.4L2073.4,403.7z"/>
	<path class="st2" d="M2141.3,521.9c-1.3,0.4-2.7,0.7-4.3,1c-1.6,0.3-3.2,0.4-4.8,0.4c-5.1,0-8.9-1.3-11.4-3.9
		c-2.5-2.6-3.8-5.9-3.8-10.2c0-1.3,0.1-2.8,0.4-4.5c0.3-1.7,0.7-3.9,1.2-6.3l11.3-53.5h12.6l-11.4,53.8c-0.5,2.1-0.8,3.8-1,4.9
		c-0.2,1.2-0.3,2.2-0.3,3c0,2.1,0.6,3.7,1.7,4.8c1.1,1.1,3,1.6,5.5,1.6c1.3,0,2.5-0.1,3.5-0.2c1-0.1,1.9-0.4,2.8-0.7L2141.3,521.9z
		 M2150.2,417.3c0,2.3-0.8,4.3-2.3,5.8c-1.6,1.6-3.5,2.4-5.8,2.4c-2.2,0-4.2-0.8-5.8-2.4c-1.7-1.6-2.5-3.6-2.5-5.8s0.8-4.2,2.5-5.6
		s3.6-2.2,5.8-2.2s4.1,0.8,5.7,2.3C2149.4,413.2,2150.2,415,2150.2,417.3z"/>
	<path class="st2" d="M2274,471.9c0,3.8-0.4,7.6-1.2,11.6s-2.1,7.9-3.7,11.8c-1.7,3.9-3.8,7.5-6.3,11c-2.5,3.5-5.5,6.5-8.8,9.2
		s-7.3,4.8-11.5,6.2c-4.3,1.6-9,2.3-14.3,2.3c-3,0-6-0.3-8.8-0.8c-2.9-0.6-5.5-1.2-7.7-2L2204,558h-12.6l19-89.5
		c0.4-1.6,0.7-3.6,1-5.8c0.3-2.3,0.6-4.6,0.8-6.8c0.2-2.3,0.4-4.5,0.6-6.4c0.2-2,0.2-3.6,0.2-4.7h12.7c0,0.9-0.1,2-0.2,3.5
		c-0.1,1.5-0.3,3-0.5,4.6c-0.2,1.6-0.4,3.2-0.6,4.7c-0.2,1.5-0.4,2.7-0.5,3.6h0.3c3.6-6.1,7.7-10.7,12.1-13.7
		c4.5-3,9.4-4.5,14.7-4.5c3.6,0,6.8,0.6,9.5,1.8s5.3,3.1,7.3,5.4s3.5,5.4,4.6,9.1C2273.5,462.9,2274,467.1,2274,471.9z
		 M2261.3,472.4c0-2.7-0.2-5.2-0.7-7.5c-0.5-2.3-1.3-4.4-2.4-5.9c-1.1-1.7-2.6-3-4.3-4c-1.8-1-3.9-1.5-6.5-1.5
		c-2.6,0-5.1,0.5-7.4,1.6c-2.3,1.1-4.5,2.6-6.5,4.4c-2,1.8-3.8,4-5.4,6.3c-1.6,2.4-3.1,4.8-4.4,7.4c-1.3,2.6-2.4,5.1-3.2,7.7
		c-0.9,2.6-1.6,5-2,7.3l-4.8,22.5c0.9,0.4,2,0.8,3.3,1.1c1.3,0.3,2.6,0.6,4,0.9s2.8,0.5,4.2,0.6c1.4,0.2,2.7,0.2,4,0.2
		c3.5,0,6.8-0.6,9.6-1.8c3-1.2,5.6-2.8,7.9-4.8c2.4-2,4.5-4.4,6.3-7c1.8-2.7,3.3-5.5,4.5-8.6c1.2-3.1,2.1-6.2,2.7-9.4
		C2261,478.8,2261.3,475.6,2261.3,472.4z"/>
	<path class="st2" d="M2360.1,464.3c0,0.7-0.1,1.7-0.3,3s-0.4,2.8-0.6,4.3c-0.2,1.5-0.5,3-0.8,4.5c-0.3,1.5-0.5,2.8-0.8,3.8l-9,42.4
		h-12.6l9.4-45.3c0.2-0.8,0.4-1.8,0.6-2.8c0.2-1.1,0.4-2.1,0.5-3.2c0.2-1.1,0.3-2,0.4-2.9c0.1-0.9,0.2-1.6,0.2-2.1
		c0-4-0.9-6.9-2.7-9.1s-4.6-3.3-8.3-3.3c-3.3,0-6.5,1-9.7,2.9c-3.3,1.9-6.3,4.4-9,7.3s-5.2,6.3-7.3,10.1c-2.1,3.7-3.5,7.3-4.3,11
		l-8.1,37.5H2285l24.5-114.5h12.4l-11.8,55.3h0.3c1.9-2.9,3.9-5.5,6.2-8c2.2-2.5,4.6-4.6,7.1-6.3c2.5-1.8,5.2-3.2,7.8-4.2
		c2.8-1,5.6-1.5,8.5-1.5c6.5,0,11.4,1.9,14.7,5.7C2358.4,452.4,2360.1,457.7,2360.1,464.3z"/>
	<path class="st2" d="M2438.3,497.5c-0.4,1.9-0.8,4.1-1.2,6.4c-0.4,2.4-0.7,4.8-1,7.1s-0.5,4.6-0.7,6.5c-0.2,2-0.3,3.6-0.3,4.7
		h-12.9c0-1,0.1-2.2,0.2-3.7c0.1-1.4,0.2-2.9,0.4-4.4c0.2-1.5,0.4-3,0.5-4.5c0.2-1.5,0.4-2.7,0.6-3.8h-0.3c-1.6,2.5-3.2,4.8-4.8,7
		c-1.6,2.2-3.4,4.2-5.4,5.7c-2,1.7-4.2,3-6.6,4c-2.4,1-5.3,1.5-8.5,1.5c-3.4,0-6.5-0.6-9.3-1.8c-2.8-1.2-5.3-3-7.3-5.4
		c-2-2.4-3.6-5.3-4.7-9c-1.1-3.6-1.6-7.8-1.6-12.6c0-3,0.3-6.2,0.9-10c0.6-3.8,1.6-7.5,3.1-11.4s3.4-7.6,5.8-11.4
		c2.4-3.7,5.4-7,8.9-9.9c3.6-3,7.7-5.2,12.6-7c4.9-1.8,10.4-2.7,16.8-2.7c4.1,0,8.2,0.3,12.5,0.9c4.3,0.6,8.5,1.3,12.8,2.2
		L2438.3,497.5z M2434.7,455c-1.8-0.4-3.9-0.8-6.3-1.1c-2.4-0.3-4.6-0.5-6.7-0.5c-4.4,0-8.2,0.7-11.6,2.1c-3.4,1.4-6.3,3.2-8.7,5.4
		c-2.5,2.3-4.6,4.8-6.3,7.7c-1.7,3-3.1,5.9-4.1,8.9c-1,3.1-1.7,6-2.2,9c-0.4,3-0.6,5.6-0.6,8.1c0,2.9,0.3,5.4,0.8,7.7
		c0.5,2.3,1.3,4.3,2.4,5.8c1.1,1.6,2.5,2.9,4.2,3.8s3.7,1.3,6.1,1.3c2.5,0,4.9-0.5,7.1-1.6c2.2-1,4.3-2.5,6.2-4.2
		c1.9-1.8,3.7-3.8,5.3-6.1c1.6-2.3,3-4.8,4.3-7.3c1.3-2.6,2.4-5.2,3.2-7.9c0.9-2.7,1.6-5.3,2.2-7.8L2434.7,455z M2422.7,430.2h-9.3
		l22-24.7h12.2L2422.7,430.2z"/>
	<path class="st2" d="M2533.6,471.9c0,3.8-0.4,7.6-1.2,11.6s-2.1,7.9-3.7,11.8c-1.7,3.9-3.8,7.5-6.3,11c-2.5,3.5-5.5,6.5-8.8,9.2
		s-7.3,4.8-11.5,6.2c-4.3,1.6-9,2.3-14.3,2.3c-3,0-6-0.3-8.8-0.8c-2.9-0.6-5.5-1.2-7.7-2l-7.7,36.8h-12.5l19-89.5
		c0.4-1.6,0.7-3.6,1-5.8s0.6-4.6,0.8-6.8c0.2-2.3,0.4-4.5,0.6-6.4c0.2-2,0.2-3.6,0.2-4.7h12.7c0,0.9-0.1,2-0.2,3.5
		c-0.1,1.5-0.3,3-0.5,4.6c-0.2,1.6-0.4,3.2-0.6,4.7c-0.2,1.5-0.4,2.7-0.5,3.6h0.3c3.6-6.1,7.7-10.7,12.1-13.7
		c4.5-3,9.4-4.5,14.7-4.5c3.6,0,6.8,0.6,9.5,1.8s5.3,3.1,7.3,5.4s3.5,5.4,4.6,9.1C2533.1,462.9,2533.6,467.1,2533.6,471.9z
		 M2520.9,472.4c0-2.7-0.2-5.2-0.7-7.5c-0.5-2.3-1.3-4.4-2.4-5.9c-1.1-1.7-2.6-3-4.3-4c-1.8-1-3.9-1.5-6.5-1.5
		c-2.6,0-5.1,0.5-7.4,1.6s-4.5,2.6-6.5,4.4c-2,1.8-3.8,4-5.4,6.3s-3.1,4.8-4.4,7.4c-1.3,2.6-2.4,5.1-3.2,7.7c-0.9,2.6-1.6,5-2,7.3
		l-4.8,22.5c0.9,0.4,2,0.8,3.3,1.1c1.3,0.3,2.6,0.6,4,0.9s2.8,0.5,4.2,0.6c1.4,0.2,2.7,0.2,4,0.2c3.5,0,6.8-0.6,9.6-1.8
		c3-1.2,5.6-2.8,7.9-4.8c2.4-2,4.5-4.4,6.3-7c1.8-2.7,3.3-5.5,4.5-8.6c1.2-3.1,2.1-6.2,2.7-9.4
		C2520.6,478.8,2520.9,475.6,2520.9,472.4z"/>
	<path class="st2" d="M2637.7,455.3h-19.6l-8.7,41.1c-0.3,1.6-0.6,3.3-0.9,5c-0.3,1.8-0.5,3.3-0.5,4.4c0,2.6,0.6,4.5,1.7,5.5
		c1.1,1.1,3,1.7,5.5,1.7c0.6,0,1.4-0.1,2.4-0.3c1-0.2,2-0.5,3-0.8c1-0.3,2-0.6,3-1c1-0.4,1.9-0.7,2.6-1l-2.4,10.9
		c-1.8,0.8-3.8,1.4-6.1,1.9s-4.4,0.8-6.5,0.8c-2.9,0-5.4-0.4-7.4-1.1c-2-0.7-3.7-1.8-5-3.2c-1.3-1.4-2.2-3-2.8-4.9s-0.9-4.2-0.9-6.5
		c0-1.5,0.1-3.2,0.4-5.1c0.3-2,0.6-3.8,1-5.3l8.9-42.1h-12.9l2.4-10.5h12.7l4-18.9c0.2-0.1,1-0.3,2.3-0.7c1.3-0.4,2.8-0.8,4.4-1.3
		c1.6-0.5,3.1-0.9,4.4-1.3c1.3-0.4,2.1-0.6,2.3-0.7l-4.8,22.9h19.6L2637.7,455.3z"/>
	<path class="st2" d="M2714.5,473.5c0,6.8-1,13.4-2.9,19.5c-2,6.1-4.8,11.5-8.4,16.1s-8.1,8.2-13.3,11c-5.3,2.7-11.1,4.1-17.7,4.1
		c-4.5,0-8.4-0.7-12-2.1c-3.6-1.4-6.6-3.5-9.1-6c-2.5-2.7-4.5-5.8-5.8-9.6c-1.3-3.8-2-8-2-12.8c0-7.1,1-13.8,3.1-19.9
		c2.1-6.1,5-11.6,8.6-16.1s8.1-8.1,13.3-10.7c5.2-2.6,10.9-3.9,17.2-3.9c4.4,0,8.3,0.7,11.9,2.1c3.6,1.4,6.7,3.5,9.1,6
		c2.5,2.7,4.5,5.8,5.9,9.6C2713.8,464.5,2714.5,468.8,2714.5,473.5z M2701.8,474.1c0-3.3-0.4-6.1-1.2-8.7c-0.8-2.6-2-4.7-3.4-6.4
		c-1.5-1.8-3.3-3.1-5.3-4c-2.1-0.9-4.4-1.4-7-1.4c-4.5,0-8.4,1.1-12,3.4c-3.6,2.3-6.7,5.2-9.1,8.9c-2.5,3.7-4.4,7.9-5.8,12.6
		c-1.3,4.8-2,9.5-2,14.4c0,3.2,0.4,5.9,1.2,8.5c0.8,2.6,1.9,4.8,3.4,6.5c1.5,1.8,3.2,3.2,5.3,4.2c2.1,1,4.5,1.5,7.1,1.5
		c4.5,0,8.5-1.1,12.1-3.4c3.6-2.3,6.7-5.2,9.1-8.9c2.5-3.7,4.4-7.9,5.7-12.7C2701.1,483.9,2701.8,479.1,2701.8,474.1z"/>
	<path class="st2" d="M2790.8,497.5c-0.4,1.9-0.8,4.1-1.2,6.4c-0.4,2.4-0.7,4.8-1,7.1s-0.5,4.6-0.7,6.5s-0.3,3.6-0.3,4.7h-12.9
		c0-1,0.1-2.2,0.2-3.7c0.1-1.4,0.2-2.9,0.4-4.4c0.2-1.5,0.4-3,0.5-4.5c0.2-1.5,0.4-2.7,0.6-3.8h-0.3c-1.6,2.5-3.2,4.8-4.8,7
		c-1.6,2.2-3.4,4.2-5.4,5.7c-2,1.7-4.2,3-6.6,4c-2.4,1-5.3,1.5-8.5,1.5c-3.4,0-6.5-0.6-9.3-1.8c-2.8-1.2-5.3-3-7.3-5.4
		c-2-2.4-3.6-5.3-4.7-9c-1.1-3.6-1.6-7.8-1.6-12.6c0-3,0.3-6.2,0.9-10c0.6-3.8,1.6-7.5,3.1-11.4c1.5-3.9,3.4-7.6,5.8-11.4
		c2.4-3.7,5.4-7,8.9-9.9c3.6-3,7.7-5.2,12.6-7c4.9-1.8,10.4-2.7,16.8-2.7c4.1,0,8.2,0.3,12.5,0.9c4.3,0.6,8.5,1.3,12.8,2.2
		L2790.8,497.5z M2787.2,455c-1.8-0.4-3.9-0.8-6.3-1.1c-2.4-0.3-4.6-0.5-6.7-0.5c-4.4,0-8.2,0.7-11.6,2.1c-3.4,1.4-6.3,3.2-8.7,5.4
		s-4.6,4.8-6.3,7.7c-1.7,3-3.1,5.9-4.1,8.9c-1,3.1-1.7,6-2.2,9c-0.4,3-0.6,5.6-0.6,8.1c0,2.9,0.3,5.4,0.8,7.7s1.3,4.3,2.4,5.8
		c1.1,1.6,2.5,2.9,4.2,3.8s3.7,1.3,6.1,1.3c2.5,0,4.9-0.5,7.1-1.6c2.2-1,4.3-2.5,6.2-4.2c1.9-1.8,3.7-3.8,5.3-6.1
		c1.6-2.3,3-4.8,4.3-7.3c1.3-2.6,2.4-5.2,3.2-7.9c0.9-2.7,1.6-5.3,2.2-7.8L2787.2,455z M2780.8,430.2l-18.1-24.7h11.6l15.7,24.7
		H2780.8z"/>
	<path class="st2" d="M2887.1,464.2c0,0.8-0.1,1.8-0.3,3.1s-0.4,2.7-0.7,4.3c-0.3,1.5-0.6,3-0.8,4.5c-0.3,1.5-0.5,2.8-0.8,3.9
		l-9,42.4h-12.6l9.4-45.3c0.2-0.8,0.4-1.8,0.6-2.8c0.2-1.1,0.4-2.1,0.5-3.2c0.2-1.1,0.3-2,0.4-2.9s0.2-1.6,0.2-2.1
		c0-3.9-0.9-6.8-2.8-9.1c-1.9-2.2-4.6-3.4-8.2-3.4c-3.4,0-6.7,1-9.9,3c-3.3,2-6.4,4.5-9.1,7.5c-2.8,3.1-5.2,6.3-7.2,10
		c-2,3.7-3.4,7.1-4.1,10.5l-8.1,37.8h-12.6l12-55.2c0.4-2,0.8-4.1,1.2-6.1c0.4-2.2,0.8-4.2,1.1-6.2c0.4-2,0.7-3.9,0.9-5.5
		c0.3-1.7,0.5-3.2,0.6-4.3h12.1c-0.3,2-0.6,4.1-0.9,6.1c-0.4,2.2-0.7,4.2-0.9,5.9c-0.3,2.1-0.6,4.2-1,6.2h0.3
		c1.8-2.8,3.8-5.3,5.9-7.8c2.2-2.5,4.5-4.6,7-6.4c2.5-1.9,5.2-3.3,7.9-4.4c2.8-1.1,5.8-1.6,8.8-1.6c3.5,0,6.4,0.5,8.8,1.6
		c2.5,1,4.6,2.5,6.2,4.4c1.7,1.9,2.9,4.1,3.7,6.7C2886.7,458.2,2887.1,461,2887.1,464.2z"/>
	<path class="st2" d="M3009.3,498.5c-0.4,1.6-0.7,3.6-1,5.8c-0.3,2.3-0.6,4.6-0.9,6.8c-0.3,2.3-0.5,4.5-0.6,6.4
		c-0.2,2-0.3,3.6-0.3,4.7h-12.9c0-0.9,0.1-2,0.2-3.5c0.1-1.5,0.3-3,0.5-4.5c0.2-1.6,0.4-3.1,0.6-4.5s0.4-2.6,0.5-3.5h-0.3
		c-1.8,3-3.7,5.5-5.5,7.7c-1.8,2.3-3.8,4.1-5.8,5.5c-2,1.5-4.2,2.6-6.5,3.4c-2.3,0.8-4.8,1.1-7.6,1.1c-3.6,0-6.8-0.6-9.5-1.9
		c-2.9-1.3-5.3-3.1-7.3-5.5s-3.5-5.4-4.6-9.1c-1.1-3.6-1.6-7.7-1.6-12.5c0-3.8,0.4-7.6,1.2-11.7c0.8-4.1,2-8,3.7-11.9
		c1.7-3.9,3.8-7.5,6.3-11s5.6-6.5,9-9.1c3.5-2.6,7.5-4.7,12-6.2c4.5-1.6,9.5-2.3,15.1-2.3c2.8,0,5.5,0.2,7.8,0.6
		c2.4,0.4,4.6,0.8,6.3,1.2l7.8-37h12.3L3009.3,498.5z M3006,455.3c-1.9-0.6-4-1-6.1-1.3c-2.1-0.3-4.4-0.5-6.8-0.5
		c-4.4,0-8.2,0.7-11.6,2.1c-3.4,1.4-6.3,3.2-8.8,5.4c-2.5,2.3-4.6,4.8-6.3,7.7c-1.7,2.9-3.1,5.8-4.1,8.9c-1,3.1-1.8,6-2.2,9
		c-0.4,3-0.6,5.6-0.6,8c0,2.9,0.2,5.3,0.7,7.7c0.5,2.3,1.3,4.4,2.4,5.9c1.1,1.7,2.5,3,4.2,3.9c1.7,0.9,3.8,1.4,6.3,1.4
		s4.9-0.5,7.1-1.6c2.2-1.1,4.3-2.5,6.2-4.4c1.9-1.8,3.7-3.9,5.3-6.2c1.6-2.4,3-4.8,4.3-7.5c1.3-2.7,2.4-5.3,3.2-8.1
		c0.9-2.8,1.6-5.3,2.2-7.9L3006,455.3z"/>
	<path class="st2" d="M3058.2,521.9c-1.3,0.4-2.7,0.7-4.3,1c-1.6,0.3-3.2,0.4-4.8,0.4c-5.1,0-8.9-1.3-11.4-3.9
		c-2.5-2.6-3.8-5.9-3.8-10.2c0-1.3,0.1-2.8,0.4-4.5c0.3-1.7,0.7-3.9,1.2-6.3l11.3-53.5h12.6l-11.4,53.8c-0.5,2.1-0.8,3.8-1,4.9
		c-0.2,1.2-0.3,2.2-0.3,3c0,2.1,0.6,3.7,1.7,4.8c1.1,1.1,3,1.6,5.5,1.6c1.3,0,2.5-0.1,3.5-0.2c1-0.1,1.9-0.4,2.8-0.7L3058.2,521.9z
		 M3067.1,417.3c0,2.3-0.8,4.3-2.3,5.8c-1.6,1.6-3.5,2.4-5.8,2.4c-2.2,0-4.2-0.8-5.8-2.4c-1.7-1.6-2.5-3.6-2.5-5.8s0.8-4.2,2.5-5.6
		s3.6-2.2,5.8-2.2c2.2,0,4.1,0.8,5.7,2.3C3066.3,413.2,3067.1,415,3067.1,417.3z"/>
	<path class="st2" d="M3141.1,463c0,4.1-0.9,7.8-2.7,11.2c-1.8,3.4-4.9,6.2-9,8.6c-4.2,2.4-9.7,4.3-16.6,5.5
		c-6.9,1.3-15.4,2-25.4,2.1c-0.1,0.6-0.2,1.1-0.2,1.8c0,0.6,0,1.1,0,1.5c0,2.7,0.4,5.2,1.1,7.7c0.8,2.4,1.9,4.6,3.5,6.3
		c1.6,1.8,3.7,3.3,6.2,4.4c2.5,1.1,5.5,1.6,8.9,1.6c3.5,0,7.4-0.7,11.5-2c4.2-1.3,8.1-3.3,11.9-5.7l-2.4,12.3
		c-2.8,1.6-6.1,3.1-9.9,4.3c-3.9,1.2-8.1,1.8-12.9,1.8c-5.8,0-10.5-0.9-14.4-2.7c-3.9-1.8-7.1-4.2-9.4-7c-2.4-3-4.2-6.3-5.2-10.2
		c-1.1-3.9-1.6-7.9-1.6-12.2c0-4.6,0.5-8.9,1.5-13.1c1-4.2,2.5-8.1,4.3-11.8c1.9-3.7,4.1-6.9,6.7-9.9c2.6-3,5.5-5.5,8.5-7.6
		c3.2-2.1,6.5-3.8,10.1-4.9c3.6-1.2,7.4-1.8,11.1-1.8c4,0,7.6,0.5,10.5,1.6c3.1,1.1,5.6,2.5,7.7,4.4c2.1,1.9,3.6,4,4.7,6.4
		C3140.6,457.7,3141.1,460.3,3141.1,463z M3128.5,463.6c0-3.2-1.2-5.6-3.5-7.4c-2.4-1.8-5.5-2.7-9.3-2.7c-3.1,0-6.1,0.7-8.9,2
		c-2.9,1.3-5.6,3.2-7.9,5.5c-2.4,2.4-4.6,5.1-6.3,8.4c-1.8,3.3-3.1,6.7-3.9,10.5c7.3,0,13.4-0.4,18.4-1.1c5.1-0.7,9.1-1.8,12.3-3.2
		c3.2-1.4,5.5-3.2,7-5.1C3127.7,468.5,3128.5,466.2,3128.5,463.6z M3102.4,546c-2.1,0-3.9-0.7-5.3-2.2c-1.5-1.5-2.2-3.3-2.2-5.2
		c0-2.1,0.8-3.8,2.3-5.1c1.5-1.4,3.3-2.1,5.3-2.1c2.1,0,3.9,0.7,5.3,2.1c1.5,1.4,2.2,3.1,2.2,5.1c0,2.1-0.7,3.9-2.2,5.2
		C3106.2,545.2,3104.5,546,3102.4,546z M3130.7,430.2l-8.6-17.4l-16.2,17.4h-9.1l21.5-25h10.1l11,25H3130.7z"/>
	<path class="st2" d="M3224.9,464.2c0,0.8-0.1,1.8-0.3,3.1s-0.4,2.7-0.7,4.3c-0.3,1.5-0.6,3-0.8,4.5c-0.3,1.5-0.5,2.8-0.8,3.9
		l-9,42.4h-12.6l9.4-45.3c0.2-0.8,0.4-1.8,0.6-2.8c0.2-1.1,0.4-2.1,0.5-3.2c0.2-1.1,0.3-2,0.4-2.9s0.2-1.6,0.2-2.1
		c0-3.9-0.9-6.8-2.8-9.1c-1.9-2.2-4.6-3.4-8.2-3.4c-3.4,0-6.7,1-9.9,3c-3.3,2-6.4,4.5-9.1,7.5c-2.8,3.1-5.2,6.3-7.2,10
		c-2,3.7-3.4,7.1-4.1,10.5l-8.1,37.8h-12.6l12-55.2c0.4-2,0.8-4.1,1.2-6.1c0.4-2.2,0.8-4.2,1.1-6.2c0.4-2,0.7-3.9,0.9-5.5
		c0.3-1.7,0.5-3.2,0.6-4.3h12.1c-0.3,2-0.6,4.1-0.9,6.1c-0.4,2.2-0.7,4.2-0.9,5.9c-0.3,2.1-0.6,4.2-1,6.2h0.3
		c1.8-2.8,3.8-5.3,5.9-7.8c2.2-2.5,4.5-4.6,7-6.4c2.5-1.9,5.2-3.3,7.9-4.4c2.8-1.1,5.8-1.6,8.8-1.6c3.5,0,6.4,0.5,8.8,1.6
		c2.5,1,4.6,2.5,6.2,4.4c1.7,1.9,2.9,4.1,3.7,6.7C3224.6,458.2,3224.9,461,3224.9,464.2z"/>
</g>
<g>
	<path class="st0" d="M1289.6,354.1h-26.1l13.6-64.3h-69.6l-13.6,64.3h-26.3l32-150.4h26.3l-13.6,63h69.7l13.6-63h26.1L1289.6,354.1
		z"/>
	<path class="st0" d="M1520.9,265.2c0,16.2-3.5,31.5-10.3,45.6c-7,14.2-16.5,25.3-28.7,33.5s-26.7,12.4-43.5,12.4
		c-12.3,0-23.1-2.7-32.6-8.1c-9.4-5.3-16.8-13-22-22.9c-5.2-9.9-7.7-21-7.7-33.4c0-13.2,2.1-25.3,6.3-36.5
		c4.2-11.2,10.1-21.1,18.1-29.5c7.9-8.5,16.8-14.8,26.5-18.9c9.8-4.2,20.5-6.2,32.1-6.2c12.1,0,23,2.7,32.4,7.9s16.7,12.8,21.9,22.6
		C1518.3,241.4,1520.9,252.5,1520.9,265.2z M1493.5,266.2c0-13-3.4-23.4-10-30.9c-6.8-7.6-15.8-11.4-27.2-11.4c-9.5,0-18.5,3-26.7,9
		c-8.2,5.9-14.7,14.3-19.3,25.2c-4.6,10.9-6.9,22.2-6.9,34.1c0,12.8,3.3,23,9.8,30.6c6.6,7.6,15.6,11.4,27.2,11.4
		c10,0,19.1-3,27.1-8.8c8-5.8,14.4-14.3,19-25.3C1491.2,289.1,1493.5,277.8,1493.5,266.2z"/>
	<path class="st0" d="M1672.3,354.1l-5.6-37.8h-59.1l-21.1,37.8H1557l88.5-150.4h29.6l23.9,150.4H1672.3z M1656.2,233.5v-3.7
		l0.2-3.7h-0.5c-1.4,4.2-3.1,8-5,11.6l-32.5,57.6h45.5l-7.4-56.7C1656.3,237.4,1656.2,235.7,1656.2,233.5z M1663.6,189.8l-26.2-34.2
		h22l22,34.2H1663.6z"/>
	<path class="st0" d="M1892.1,354.1h-25.2L1815.4,246c-0.4-0.9-1.2-2.7-2.2-5.2c-1-2.6-1.6-4.5-1.9-5.5h-0.6l-1,7.1l-1.3,7.6
		l-22.3,104.1h-24.7l31.9-150.4h27.5l50.5,107.6c1.6,3.6,2.8,6.5,3.5,8.8h0.4c0.4-4.8,1-9.5,2-14l22-102.4h24.9L1892.1,354.1z"/>
	<path class="st0" d="M2108.6,235c-5.2-3.6-11.4-6.4-18.7-8.5c-7.3-2.2-14.8-3.2-22.6-3.2c-12.2,0-23.1,2.7-32.4,8.1
		c-9.3,5.4-16.6,13.1-21.7,23s-7.7,21.2-7.7,33.8c0,14.4,3.9,25.7,11.6,34.1c7.7,8.3,18.4,12.5,31.8,12.5c7.6,0,14.6-1.2,21.2-3.6
		l7.7-37.1h-32.9l4.7-21.4h58.9l-15.6,72.8c-14.5,7.5-30.3,11.4-47.4,11.4c-13.5,0-25.3-2.8-35.6-8.3s-18.1-13.5-23.4-23.7
		c-5.5-10.2-8.1-21.8-8.1-34.9c0-17.1,3.7-32.6,11.1-46.2c7.5-13.7,18-24.1,31.7-31.6c13.6-7.4,29.6-11.1,48-11.1
		c15.1,0,29.9,3.1,44.4,9.2L2108.6,235z"/>
	<path class="st0" d="M2411.9,203.7l-75.1,73.9l46.7,76.5h-31.8l-36.8-64.5c-1.8-3-3.2-6.1-4.3-9.3h-0.4l-16,73.8h-26.2l32-150.4
		h26.3l-15,70.3h0.4l5.1-5.8l62.3-64.4L2411.9,203.7L2411.9,203.7z"/>
	<path class="st0" d="M2568.1,354.1H2542l13.6-64.3H2486l-13.6,64.3H2446l32-150.4h26.3l-13.6,63h69.7l13.6-63h26.1L2568.1,354.1z"
		/>
	<path class="st0" d="M2746,354.1l-5.6-37.8h-59.1l-21.1,37.8h-29.6l88.5-150.4h29.6l23.9,150.4H2746z M2729.9,233.5v-3.7l0.2-3.7
		h-0.5c-1.4,4.2-3.1,8-5,11.6l-32.5,57.6h45.5l-7.4-56.7C2730,237.4,2729.9,235.7,2729.9,233.5z"/>
	<path class="st0" d="M2965.6,354.1h-25.2L2888.9,246c-0.4-0.9-1.2-2.7-2.2-5.2c-1-2.6-1.6-4.5-1.9-5.5h-0.6l-1,7.1l-1.3,7.6
		l-22.3,104.1H2835l31.9-150.4h27.5l50.5,107.6c1.6,3.6,2.8,6.5,3.5,8.8h0.4c0.4-4.8,1-9.5,2-14l22-102.4h24.9L2965.6,354.1z"/>
	<path class="st0" d="M3182.2,235c-5.2-3.6-11.4-6.4-18.7-8.5c-7.3-2.2-14.8-3.2-22.6-3.2c-12.2,0-23.1,2.7-32.4,8.1
		c-9.3,5.4-16.6,13.1-21.7,23s-7.7,21.2-7.7,33.8c0,14.4,3.9,25.7,11.6,34.1c7.7,8.3,18.4,12.5,31.8,12.5c7.6,0,14.6-1.2,21.2-3.6
		l7.7-37.1h-32.9l4.7-21.4h58.9l-15.6,72.8c-14.5,7.5-30.3,11.4-47.4,11.4c-13.5,0-25.3-2.8-35.6-8.3c-10.2-5.5-18.1-13.5-23.4-23.7
		c-5.5-10.2-8.1-21.8-8.1-34.9c0-17.1,3.7-32.6,11.1-46.2c7.5-13.7,18-24.1,31.7-31.6c13.6-7.4,29.6-11.1,48-11.1
		c15.1,0,29.9,3.1,44.4,9.2L3182.2,235z"/>
</g>
<g>
</g>
<g>
</g>
<g>
</g>
<g>
</g>
<g>
</g>
</svg>
