<?xml version="1.0" encoding="utf-8"?>
<!-- Generator: Adobe Illustrator 22.0.0, SVG Export Plug-In . SVG Version: 6.00 Build 0)  -->
<svg version="1.1" id="Layer_1" xmlns="http://www.w3.org/2000/svg" xmlns:xlink="http://www.w3.org/1999/xlink" x="0px" y="0px"
	 viewBox="0 0 3283 924" style="enable-background:new 0 0 3283 924;" xml:space="preserve">
<style type="text/css">
	.st0{fill-rule:evenodd;clip-rule:evenodd;fill:#FFFFFF;}
	.st1{fill:#FFFFFF;}
</style>
<g id="logo">
	<polygon class="st0" points="1329,51.8 1085.8,51.8 834.6,337.6 885.5,51.3 650.6,51.3 607.9,291.3 385.9,291.3 428.6,51.3 
		193.6,51.3 67.3,762.3 302.2,762.3 351.2,486.8 573.1,486.8 524.2,762.3 759.1,762.3 816.2,441.2 955.6,762.3 1200.7,762.3 
		1025.1,387.7 	"/>
	<polygon class="st0" points="1211.8,809 63.5,809 67,794.5 1214.9,794.5 	"/>
	<polygon class="st0" points="64.5,910.8 45.4,910.8 59.9,842.5 79,842.5 	"/>
	<polygon class="st0" points="224.1,842.5 237.4,842.5 222.9,910.8 208.6,910.8 191.1,862.1 191,862.1 180.6,910.8 167.3,910.8 
		181.8,842.5 196.8,842.5 213.8,890 214,890 	"/>
	<path class="st0" d="M384.9,864.9c-0.3-4.1-0.8-11.8-12.6-11.8c-6.8,0-17.9,4.6-22,23.8c-2.6,12.3-0.1,23.3,12,23.3
		c7.9,0,14.3-4.4,17.8-12.8h14.3c-6,14.8-17.9,25.2-35,25.2c-18.1,0-28.6-12.3-23.6-35.8c5.1-23.8,21.4-36,39-36
		c20.4,0,25.7,14,24.3,24.1H384.9z"/>
	<path class="st0" d="M527.2,900.5c7.7,0,19.5-4.7,23.6-23.8c4.1-19.1-5.8-23.9-13.5-23.9c-7.7,0-19.6,4.8-23.6,23.9
		C509.7,895.8,519.5,900.5,527.2,900.5z M539.9,840.8c9,0,32,3.9,25.1,35.9c-6.8,32-31.4,35.9-40.4,35.9c-9,0-32-3.9-25.2-35.9
		C506.3,844.6,530.9,840.8,539.9,840.8z"/>
	<polygon class="st0" points="689.5,910.8 675.2,910.8 687.1,854.6 666.5,854.6 669.1,842.5 724.6,842.5 722,854.6 701.4,854.6 	"/>
	<polygon class="st0" points="875.7,854.6 839.5,854.6 836.4,869 869.7,869 867.1,881 833.9,881 830.1,898.7 867.9,898.7 
		865.4,910.8 813.6,910.8 828.1,842.5 878.3,842.5 	"/>
	<path class="st0" d="M1025.3,864.9c-0.2-4.1-0.8-11.8-12.6-11.8c-6.8,0-17.9,4.6-22,23.8c-2.6,12.3-0.1,23.3,11.9,23.3
		c7.9,0,14.4-4.4,17.9-12.8h14.3c-6,14.8-17.9,25.2-35,25.2c-18.2,0-28.6-12.3-23.5-35.8c5-23.8,21.4-36,39-36
		c20.4,0,25.7,14,24.3,24.1H1025.3z"/>
	<polygon class="st0" points="1155.9,880.2 1149.4,910.8 1135.2,910.8 1149.7,842.5 1163.9,842.5 1158.5,868.4 1185,868.4 
		1190.6,842.5 1204.8,842.5 1190.3,910.8 1176.1,910.8 1182.6,880.2 	"/>
	<path class="st0" d="M95.4,801.7c0,9.6-7.8,17.3-17.4,17.3c-9.6,0-17.3-7.7-17.3-17.3c0-9.6,7.8-17.4,17.3-17.4
		C87.7,784.4,95.4,792.1,95.4,801.7z"/>
	<path class="st0" d="M1384.5,49.4c1.5,0,3-0.1,4.4-0.4c1.4-0.2,2.6-0.7,3.7-1.4c1.1-0.7,1.9-1.6,2.5-2.7c0.6-1.2,1-2.6,1-4.5
		c0-2.5-0.7-4.5-2.1-6.1c-1.4-1.6-3.7-2.4-6.8-2.4h-16.5v17.5H1384.5z M1364,26.3h23.5c4.7,0,8.4,1.2,11.1,3.5
		c2.7,2.4,4.1,5.5,4.1,9.6c0,3-0.7,5.7-2.1,8c-1.4,2.3-3.6,3.9-6.6,4.7v0.1c1.4,0.3,2.6,0.8,3.5,1.4c0.9,0.7,1.6,1.4,2.2,2.4
		c0.6,0.9,1,1.9,1.2,3c0.2,1.1,0.4,2.3,0.5,3.5c0.1,1.2,0.2,2.5,0.2,3.7c0.1,1.3,0.2,2.5,0.3,3.7c0.2,1.2,0.4,2.3,0.8,3.4
		c0.3,1.1,0.9,2.1,1.6,2.9h-7.4c-0.5-0.6-0.8-1.2-0.9-1.9c-0.1-0.7-0.2-1.5-0.3-2.5c-0.1-1-0.1-2.1-0.2-3.4c0-1.3-0.2-2.8-0.4-4.5
		c-0.2-1.2-0.4-2.4-0.7-3.5c-0.3-1.1-0.7-2.1-1.3-2.9c-0.6-0.8-1.4-1.5-2.4-2c-1-0.5-2.3-0.7-3.9-0.7h-16.3v21.4h-6.7V26.3z"/>
	<path class="st0" d="M1383.6,16.7c-20.3,0-36.8,16.5-36.8,36.8c0,20.3,16.5,36.8,36.8,36.8c20.3,0,36.8-16.5,36.8-36.8
		C1420.4,33.2,1403.9,16.7,1383.6,16.7L1383.6,16.7z M1383.6,95.6c-23.2,0-42.1-18.9-42.1-42.1c0-23.2,18.9-42.1,42.1-42.1
		c23.2,0,42.1,18.9,42.1,42.1C1425.7,76.7,1406.8,95.6,1383.6,95.6L1383.6,95.6z"/>
</g>
<g>
	<path class="st1" d="M1486.7,406.8h-28.3V333h-80.1v73.8H1350V236.7h28.2v71.5h80.1v-71.5h28.3V406.8z"/>
	<path class="st1" d="M1579.4,409.7c-18.7,0-33.7-5.7-44.9-17c-11.2-11.3-16.8-26.4-16.8-45.1c0-20.4,5.8-36.3,17.5-47.8
		c11.7-11.5,27.4-17.2,47.2-17.2c19,0,33.8,5.6,44.4,16.7c10.6,11.2,15.9,26.6,15.9,46.4c0,19.4-5.7,34.9-17.1,46.6
		C1614.1,403.8,1598.7,409.7,1579.4,409.7z M1580.7,304.5c-10.8,0-19.3,3.8-25.5,11.3c-6.2,7.5-9.4,17.9-9.4,31.1
		c0,12.7,3.2,22.8,9.5,30.1c6.3,7.3,14.8,11,25.4,11c10.8,0,19.2-3.6,25-10.8c5.8-7.2,8.7-17.4,8.7-30.7c0-13.4-2.9-23.7-8.7-31
		C1599.9,308.1,1591.6,304.5,1580.7,304.5z"/>
	<path class="st1" d="M1761,406.8h-26.7v-19h-0.5c-8.4,14.6-20.7,21.8-36.9,21.8c-11.9,0-21.3-3.2-28.1-9.7
		c-6.8-6.5-10.1-15.1-10.1-25.7c0-22.9,13.2-36.3,39.6-40.1l36.1-5.1c0-17.3-8.2-26-24.7-26c-14.5,0-27.5,5-39.1,14.9v-24.1
		c12.8-7.6,27.6-11.4,44.4-11.4c30.7,0,46,15.1,46,45.3V406.8z M1735.2,264h-20.5l-31.1-38.9h25.4L1735.2,264z M1734.5,347.2
		l-25.5,3.6c-7.9,1-13.9,2.9-17.9,5.8c-4,2.8-6,7.7-6,14.8c0,5.1,1.8,9.4,5.5,12.6c3.7,3.3,8.6,4.9,14.8,4.9
		c8.4,0,15.3-2.9,20.8-8.8c5.5-5.9,8.2-13.3,8.2-22.2V347.2z"/>
	<path class="st1" d="M1902.8,406.8h-27.5v-68.4c0-22.7-8-34-24.1-34c-8.4,0-15.3,3.1-20.8,9.4c-5.5,6.3-8.2,14.2-8.2,23.8v69.3
		h-27.6V285.4h27.6v20.2h0.5c9.1-15.3,22.2-23,39.4-23c13.2,0,23.3,4.3,30.2,12.9c7,8.6,10.4,21,10.4,37.2V406.8z"/>
	<path class="st1" d="M2046.9,397.1c0,44.6-22.4,66.9-67.3,66.9c-15.8,0-29.6-2.7-41.4-7.9v-25.1c13.3,7.6,25.9,11.4,37.8,11.4
		c28.9,0,43.3-14.2,43.3-42.6v-13.3h-0.5c-9.1,15.5-22.8,23.2-41,23.2c-14.8,0-26.7-5.4-35.8-16.2c-9.1-10.8-13.6-25.3-13.6-43.5
		c0-20.6,4.9-37,14.6-49.2c9.7-12.2,23.1-18.3,40.1-18.3c16.1,0,28,6.6,35.7,19.7h0.5v-16.8h27.5V397.1z M2019.6,351.2v-15.8
		c0-8.5-2.8-15.8-8.5-21.9c-5.7-6-12.7-9.1-21.2-9.1c-10.4,0-18.6,3.9-24.5,11.6c-5.9,7.7-8.8,18.5-8.8,32.3
		c0,11.9,2.8,21.5,8.5,28.6c5.7,7.2,13.1,10.7,22.5,10.7c9.5,0,17.2-3.4,23.1-10.3C2016.7,370.6,2019.6,361.9,2019.6,351.2z"/>
	<path class="st1" d="M2281.3,406.8h-36.8l-59.2-77.8c-2.2-2.9-3.6-4.9-4-5.9h-0.5v83.7h-28.2V236.7h28.2v79.9h0.5
		c0.9-1.7,2.3-3.7,4-5.8l57.1-74.1h33.8l-66.8,81.6L2281.3,406.8z"/>
	<path class="st1" d="M2405.9,406.8h-27.5v-66.4c0-24-8-36.1-24.1-36.1c-8.1,0-14.9,3.5-20.4,10.4c-5.5,7-8.3,15.9-8.3,26.7v65.4
		h-27.6V227h27.6v78.5h0.5c9.2-15.3,22.3-23,39.4-23c27,0,40.4,16.5,40.4,49.5V406.8z"/>
	<path class="st1" d="M2532.5,406.8h-26.7v-19h-0.5c-8.4,14.6-20.7,21.8-36.9,21.8c-11.9,0-21.3-3.2-28.1-9.7
		c-6.8-6.5-10.1-15.1-10.1-25.7c0-22.9,13.2-36.3,39.6-40.1l36.1-5.1c0-17.3-8.2-26-24.7-26c-14.5,0-27.5,5-39.1,14.9v-24.1
		c12.8-7.6,27.6-11.4,44.4-11.4c30.7,0,46,15.1,46,45.3V406.8z M2506,347.2l-25.5,3.6c-7.9,1-13.9,2.9-17.9,5.8c-4,2.8-6,7.7-6,14.8
		c0,5.1,1.8,9.4,5.5,12.6c3.7,3.3,8.6,4.9,14.8,4.9c8.4,0,15.3-2.9,20.8-8.8c5.5-5.9,8.2-13.3,8.2-22.2V347.2z"/>
	<path class="st1" d="M2674.3,406.8h-27.5v-68.4c0-22.7-8-34-24.1-34c-8.4,0-15.3,3.1-20.8,9.4c-5.5,6.3-8.2,14.2-8.2,23.8v69.3
		h-27.6V285.4h27.6v20.2h0.5c9.1-15.3,22.2-23,39.4-23c13.2,0,23.3,4.3,30.2,12.9c7,8.6,10.4,21,10.4,37.2V406.8z"/>
	<path class="st1" d="M2818.4,397.1c0,44.6-22.4,66.9-67.3,66.9c-15.8,0-29.6-2.7-41.4-7.9v-25.1c13.3,7.6,25.9,11.4,37.8,11.4
		c28.9,0,43.3-14.2,43.3-42.6v-13.3h-0.5c-9.1,15.5-22.8,23.2-41,23.2c-14.8,0-26.7-5.4-35.8-16.2c-9.1-10.8-13.6-25.3-13.6-43.5
		c0-20.6,4.9-37,14.6-49.2c9.7-12.2,23.1-18.3,40.1-18.3c16.1,0,28,6.6,35.7,19.7h0.5v-16.8h27.5V397.1z M2791.1,351.2v-15.8
		c0-8.5-2.8-15.8-8.5-21.9c-5.7-6-12.7-9.1-21.2-9.1c-10.4,0-18.6,3.9-24.5,11.6c-5.9,7.7-8.8,18.5-8.8,32.3
		c0,11.9,2.8,21.5,8.5,28.6c5.7,7.2,13.1,10.7,22.5,10.7c9.5,0,17.2-3.4,23.1-10.3C2788.2,370.6,2791.1,361.9,2791.1,351.2z"/>
</g>
<g>
	<path class="st1" d="M1459.1,582.5c0,0.6-0.1,1.6-0.2,2.8c-0.2,1.3-0.4,2.6-0.6,4c-0.3,1.4-0.5,2.8-0.8,4.2
		c-0.3,1.4-0.5,2.6-0.7,3.5l-8.6,39.9h-11.7l8.9-42.7c0.2-0.8,0.4-1.7,0.6-2.7c0.2-1,0.4-2,0.5-3c0.2-1,0.3-1.9,0.4-2.7
		c0.1-0.8,0.1-1.5,0.1-2c0-3.7-0.8-6.6-2.4-8.6c-1.6-2-4.1-3-7.5-3c-1.8,0-3.7,0.4-5.6,1.2c-1.9,0.8-3.8,2-5.6,3.4
		c-1.8,1.4-3.6,3.1-5.3,5c-1.7,1.9-3.2,3.9-4.6,6.1c-1.4,2.2-2.6,4.4-3.6,6.6s-1.7,4.5-2.2,6.7l-7.6,35.7h-11.8l9-42.7
		c0.2-0.8,0.4-1.7,0.6-2.7c0.2-1,0.4-2,0.5-3c0.2-1,0.3-1.9,0.4-2.7c0.1-0.8,0.1-1.5,0.1-2c0-3.7-0.8-6.6-2.5-8.6
		c-1.7-2-4.2-3-7.5-3c-1.9,0-3.7,0.4-5.7,1.2c-1.9,0.8-3.8,2-5.7,3.4s-3.6,3.1-5.3,5.1c-1.7,1.9-3.2,4-4.6,6.1
		c-1.4,2.2-2.6,4.4-3.6,6.6c-1,2.3-1.7,4.5-2.2,6.7l-7.6,35.6H1345l11.2-52c0.4-1.8,0.8-3.8,1.1-5.8c0.4-2,0.7-4,1.1-5.8
		c0.3-1.9,0.6-3.6,0.9-5.2c0.2-1.6,0.4-2.9,0.6-4h11.4c-0.2,1.9-0.5,3.8-0.9,5.8c-0.3,2-0.6,3.9-0.9,5.6c-0.3,2-0.6,3.9-0.9,5.8h0.3
		c1.7-2.8,3.6-5.3,5.6-7.6c2-2.3,4.1-4.3,6.3-6c2.2-1.7,4.6-3,7-4c2.4-0.9,4.9-1.4,7.5-1.4c3,0,5.6,0.5,7.8,1.4
		c2.2,0.9,4,2.2,5.4,3.8c1.4,1.6,2.5,3.6,3.3,5.9c0.8,2.3,1.2,4.9,1.4,7.8c1.8-2.7,3.6-5.1,5.7-7.4c2-2.3,4.2-4.3,6.5-6
		c2.3-1.7,4.7-3,7.3-4c2.6-1,5.3-1.5,8.2-1.5c6.1,0,10.6,1.8,13.7,5.3C1457.6,571.2,1459.1,576.1,1459.1,582.5z"/>
	<path class="st1" d="M1531,613.6c-0.4,1.8-0.7,3.8-1.1,6.1c-0.4,2.3-0.7,4.5-0.9,6.7c-0.3,2.2-0.5,4.3-0.6,6.2
		c-0.2,1.9-0.2,3.4-0.2,4.4h-12.1c0-0.9,0.1-2.1,0.2-3.4c0.1-1.3,0.2-2.7,0.4-4.1c0.2-1.4,0.3-2.8,0.5-4.2c0.2-1.4,0.3-2.6,0.5-3.6
		h-0.3c-1.5,2.3-3,4.5-4.5,6.6c-1.5,2.1-3.2,3.9-5.1,5.4c-1.9,1.6-3.9,2.8-6.2,3.7c-2.3,0.9-5,1.4-8,1.4c-3.2,0-6.1-0.6-8.7-1.7
		s-4.9-2.8-6.8-5.1c-1.9-2.3-3.4-5.1-4.4-8.5c-1-3.4-1.5-7.3-1.5-11.8c0-2.8,0.3-5.9,0.9-9.4c0.6-3.5,1.5-7.1,2.9-10.7
		c1.4-3.7,3.2-7.2,5.4-10.7c2.3-3.5,5.1-6.6,8.4-9.4c3.3-2.8,7.3-5,11.9-6.6c4.6-1.7,9.8-2.5,15.8-2.5c3.8,0,7.7,0.3,11.7,0.9
		c4,0.6,8,1.3,12,2.1L1531,613.6z M1527.6,573.7c-1.7-0.4-3.6-0.7-5.8-1c-2.2-0.3-4.3-0.4-6.3-0.4c-4.1,0-7.8,0.7-10.9,2
		c-3.2,1.3-5.9,3-8.2,5.1c-2.3,2.1-4.3,4.5-5.9,7.3c-1.6,2.8-2.9,5.6-3.8,8.4c-0.9,2.9-1.6,5.7-2,8.5c-0.4,2.8-0.6,5.3-0.6,7.6
		c0,2.7,0.2,5.1,0.7,7.3c0.5,2.2,1.2,4,2.2,5.5c1,1.5,2.3,2.7,3.9,3.5c1.6,0.8,3.5,1.2,5.7,1.2c2.4,0,4.6-0.5,6.7-1.5
		c2.1-1,4-2.3,5.8-4c1.8-1.7,3.4-3.6,4.9-5.8c1.5-2.2,2.8-4.5,4-6.9c1.2-2.4,2.2-4.9,3-7.5c0.8-2.5,1.5-5,2-7.4L1527.6,573.7z"/>
	<path class="st1" d="M1620,582.3c0,0.7-0.1,1.7-0.2,2.9c-0.2,1.2-0.4,2.6-0.6,4c-0.3,1.4-0.5,2.8-0.8,4.2c-0.3,1.4-0.5,2.6-0.7,3.6
		l-8.5,39.9h-11.8l8.9-42.7c0.2-0.8,0.4-1.6,0.6-2.6c0.2-1,0.4-2,0.5-3c0.1-1,0.3-1.9,0.4-2.7c0.1-0.8,0.1-1.5,0.1-2
		c0-3.6-0.9-6.5-2.6-8.5c-1.7-2.1-4.3-3.1-7.7-3.1c-3.1,0-6.2,0.9-9.3,2.8c-3.1,1.9-5.9,4.2-8.5,7c-2.6,2.8-4.9,6-6.7,9.4
		c-1.9,3.4-3.1,6.7-3.8,9.9l-7.6,35.6h-11.8l11.2-52c0.4-1.8,0.8-3.8,1.1-5.8c0.4-2,0.7-4,1.1-5.8c0.3-1.9,0.6-3.6,0.9-5.2
		c0.2-1.6,0.4-2.9,0.6-4h11.4c-0.2,1.9-0.5,3.8-0.9,5.8c-0.3,2-0.6,3.9-0.9,5.6c-0.3,2-0.6,3.9-0.9,5.8h0.3c1.7-2.6,3.5-5.1,5.5-7.4
		c2-2.3,4.2-4.3,6.5-6c2.3-1.7,4.8-3.1,7.5-4.1c2.6-1,5.4-1.5,8.3-1.5c3.2,0,6,0.5,8.3,1.5c2.3,1,4.3,2.3,5.8,4.1
		c1.5,1.8,2.7,3.9,3.4,6.3C1619.6,576.7,1620,579.4,1620,582.3z"/>
	<path class="st1" d="M1688,631.7c-1.2,5.7-2.8,10.9-4.7,15.8c-1.9,4.8-4.5,9-7.7,12.5c-3.2,3.5-7.2,6.3-11.9,8.3s-10.4,3-17.2,3
		c-4.7,0-8.7-0.5-12.1-1.6c-3.4-1.1-6.6-2.4-9.4-3.9l2.2-10.9c3,1.8,6.2,3.3,9.5,4.6c3.4,1.2,7,1.9,10.9,1.9c4.2,0,7.9-0.6,11-1.9
		c3.1-1.2,5.8-3,8-5.4c2.3-2.4,4.1-5.3,5.6-8.8c1.5-3.5,2.7-7.4,3.7-11.9l2.5-11.4h-0.3c-1.8,2.9-3.6,5.4-5.3,7.5
		c-1.7,2.1-3.5,3.9-5.4,5.3c-1.9,1.4-3.9,2.4-6,3.1c-2.1,0.7-4.4,1-6.9,1c-3.3,0-6.2-0.6-8.9-1.7s-4.9-2.9-6.8-5.2
		c-1.9-2.3-3.3-5.1-4.3-8.5c-1-3.4-1.5-7.4-1.5-11.8c0-4.2,0.5-8.4,1.4-12.5c0.9-4.1,2.3-7.9,4-11.6c1.8-3.7,3.9-7,6.4-10.1
		c2.5-3.1,5.4-5.7,8.6-7.9c3.2-2.2,6.8-4,10.6-5.2c3.9-1.3,8-1.9,12.4-1.9c4.4,0,8.8,0.3,13.2,0.9c4.4,0.6,8.5,1.2,12.2,1.9
		L1688,631.7z M1688.5,573.7c-1.6-0.4-3.6-0.7-5.9-1c-2.3-0.3-4.8-0.4-7.4-0.4c-4.5,0-8.5,1-12.2,3.1c-3.7,2.1-6.9,4.9-9.6,8.4
		c-2.7,3.5-4.8,7.7-6.3,12.3c-1.5,4.7-2.2,9.7-2.2,14.9c0,2.6,0.2,4.9,0.7,7.1c0.5,2.2,1.2,4.1,2.1,5.6c1,1.6,2.2,2.8,3.8,3.7
		c1.5,0.9,3.4,1.4,5.7,1.4c2.6,0,5-0.5,7.2-1.6c2.2-1.1,4.2-2.5,6.1-4.3c1.9-1.8,3.5-3.9,4.9-6.2c1.4-2.3,2.7-4.7,3.8-7.1
		c1.1-2.4,2.1-4.8,2.8-7.2c0.8-2.3,1.4-4.5,1.8-6.4L1688.5,573.7z"/>
	<path class="st1" d="M1810.7,614.6c-0.3,1.5-0.7,3.3-1,5.5c-0.3,2.1-0.6,4.3-0.8,6.4c-0.2,2.2-0.4,4.2-0.6,6.1
		c-0.2,1.9-0.3,3.4-0.3,4.4h-12.1c0-0.8,0.1-1.9,0.2-3.2c0.1-1.4,0.3-2.8,0.4-4.2c0.2-1.5,0.3-2.9,0.5-4.2c0.2-1.4,0.4-2.5,0.5-3.3
		h-0.3c-1.7,2.8-3.4,5.2-5.1,7.3c-1.7,2.1-3.5,3.9-5.4,5.3c-1.9,1.4-3.9,2.5-6,3.2s-4.5,1.1-7,1.1c-3.3,0-6.3-0.6-9-1.8
		s-4.9-2.9-6.8-5.2c-1.9-2.3-3.3-5.1-4.3-8.5c-1-3.4-1.5-7.3-1.5-11.7c0-3.5,0.4-7.2,1.1-11c0.7-3.8,1.9-7.5,3.4-11.2
		c1.5-3.7,3.5-7.1,5.9-10.4c2.4-3.3,5.2-6.1,8.5-8.6c3.3-2.5,7-4.4,11.2-5.9c4.2-1.4,8.9-2.2,14.2-2.2c2.7,0,5.1,0.2,7.4,0.5
		c2.3,0.4,4.2,0.7,5.9,1.1l2.6-12.5h-23.6l2.1-9.5h23.6l2.8-12.9h11.5l-2.7,12.9h9.7l-2.1,9.5h-9.6L1810.7,614.6z M1807.6,574
		c-1.8-0.5-3.7-0.9-5.7-1.2s-4.1-0.5-6.3-0.5c-4.1,0-7.8,0.6-10.9,1.9c-3.2,1.3-5.9,3-8.3,5.1s-4.3,4.6-5.9,7.3
		c-1.6,2.7-2.9,5.5-3.8,8.4c-1,2.9-1.7,5.7-2.1,8.5c-0.4,2.8-0.6,5.3-0.6,7.5c0,2.7,0.2,5.1,0.7,7.3c0.5,2.2,1.2,4.1,2.2,5.6
		c1,1.6,2.3,2.8,4,3.6c1.6,0.9,3.6,1.3,5.8,1.3c2.4,0,4.6-0.5,6.7-1.5c2.1-1,4-2.3,5.8-4.1c1.8-1.7,3.4-3.7,4.9-5.9
		c1.5-2.2,2.8-4.6,4-7.1c1.2-2.5,2.2-5.1,3-7.7c0.8-2.6,1.5-5.1,2-7.4L1807.6,574z"/>
	<path class="st1" d="M1893.7,581.2c0,3.8-0.9,7.3-2.6,10.5c-1.7,3.2-4.5,5.9-8.5,8.1c-3.9,2.3-9.1,4-15.6,5.2
		c-6.5,1.2-14.4,1.9-23.9,1.9c-0.1,0.5-0.1,1.1-0.1,1.6c0,0.5,0,1,0,1.4c0,2.6,0.4,5,1.1,7.3c0.7,2.3,1.8,4.3,3.3,6
		c1.5,1.7,3.4,3.1,5.8,4.1c2.3,1,5.1,1.5,8.4,1.5c3.3,0,6.9-0.6,10.8-1.9c3.9-1.3,7.7-3,11.2-5.4l-2.2,11.5c-2.6,1.5-5.7,2.8-9.3,4
		c-3.6,1.1-7.6,1.7-12.1,1.7c-5.4,0-9.9-0.8-13.6-2.5c-3.7-1.7-6.6-3.9-8.9-6.7c-2.3-2.8-3.9-6-4.9-9.6c-1-3.6-1.5-7.4-1.5-11.4
		c0-4.3,0.5-8.4,1.4-12.3c0.9-4,2.3-7.7,4-11.1c1.7-3.4,3.8-6.5,6.2-9.4c2.4-2.8,5.1-5.2,8-7.2c2.9-2,6.1-3.5,9.5-4.6
		c3.4-1.1,6.9-1.6,10.5-1.6c3.7,0,7.1,0.5,9.9,1.5c2.9,1,5.3,2.4,7.2,4.1c1.9,1.7,3.4,3.7,4.4,6
		C1893.2,576.2,1893.7,578.6,1893.7,581.2z M1881.8,581.7c0-3-1.1-5.3-3.3-7c-2.2-1.7-5.1-2.5-8.8-2.5c-2.9,0-5.7,0.6-8.4,1.9
		c-2.7,1.3-5.2,3-7.5,5.2c-2.3,2.2-4.2,4.8-5.9,7.9c-1.7,3.1-2.9,6.4-3.6,9.9c6.8,0,12.5-0.3,17.3-1c4.7-0.7,8.6-1.7,11.6-3
		s5.2-3,6.5-4.9C1881.1,586.3,1881.8,584.2,1881.8,581.7z M1881.3,550.2l-8.1-10.6l-15.2,10.6h-8.6l20.1-17.7h9.5l10.3,17.7H1881.3z
		 M1886.2,539.5l16.6-17.5h12l-19.5,17.5H1886.2z"/>
	<path class="st1" d="M1970.9,582.3c0,0.7-0.1,1.7-0.2,2.9c-0.2,1.2-0.4,2.6-0.6,4c-0.3,1.4-0.5,2.8-0.8,4.2
		c-0.3,1.4-0.5,2.6-0.7,3.6L1960,637h-11.8l8.9-42.7c0.2-0.8,0.4-1.6,0.6-2.6c0.2-1,0.4-2,0.5-3s0.3-1.9,0.4-2.7
		c0.1-0.8,0.1-1.5,0.1-2c0-3.6-0.9-6.5-2.6-8.5c-1.7-2.1-4.3-3.1-7.7-3.1c-3.1,0-6.2,0.9-9.3,2.8c-3.1,1.9-5.9,4.2-8.5,7
		s-4.9,6-6.7,9.4c-1.9,3.4-3.1,6.7-3.8,9.9l-7.6,35.6h-11.8l11.2-52c0.4-1.8,0.8-3.8,1.1-5.8c0.4-2,0.7-4,1.1-5.8
		c0.3-1.9,0.6-3.6,0.9-5.2c0.2-1.6,0.4-2.9,0.6-4h11.4c-0.2,1.9-0.5,3.8-0.9,5.8c-0.3,2-0.6,3.9-0.9,5.6c-0.3,2-0.6,3.9-0.9,5.8h0.3
		c1.7-2.6,3.5-5.1,5.5-7.4c2-2.3,4.2-4.3,6.5-6c2.3-1.7,4.8-3.1,7.5-4.1c2.6-1,5.4-1.5,8.3-1.5c3.2,0,6,0.5,8.3,1.5
		c2.3,1,4.3,2.3,5.8,4.1c1.5,1.8,2.7,3.9,3.4,6.3C1970.6,576.7,1970.9,579.4,1970.9,582.3z"/>
	<path class="st1" d="M2079,631.7c-1.2,5.7-2.8,10.9-4.7,15.8c-1.9,4.8-4.5,9-7.7,12.5c-3.2,3.5-7.2,6.3-11.9,8.3s-10.4,3-17.2,3
		c-4.7,0-8.7-0.5-12.1-1.6c-3.4-1.1-6.6-2.4-9.4-3.9l2.2-10.9c3,1.8,6.2,3.3,9.5,4.6c3.4,1.2,7,1.9,10.9,1.9c4.2,0,7.9-0.6,11-1.9
		c3.1-1.2,5.8-3,8-5.4c2.3-2.4,4.1-5.3,5.6-8.8c1.5-3.5,2.7-7.4,3.7-11.9l2.5-11.4h-0.3c-1.8,2.9-3.6,5.4-5.3,7.5
		c-1.7,2.1-3.5,3.9-5.4,5.3c-1.9,1.4-3.9,2.4-6,3.1c-2.1,0.7-4.4,1-6.9,1c-3.3,0-6.2-0.6-8.9-1.7c-2.7-1.2-4.9-2.9-6.8-5.2
		c-1.9-2.3-3.3-5.1-4.3-8.5s-1.5-7.4-1.5-11.8c0-4.2,0.5-8.4,1.4-12.5c0.9-4.1,2.3-7.9,4-11.6c1.8-3.7,3.9-7,6.4-10.1
		c2.5-3.1,5.4-5.7,8.6-7.9c3.2-2.2,6.8-4,10.6-5.2c3.9-1.3,8-1.9,12.4-1.9c4.4,0,8.8,0.3,13.2,0.9c4.4,0.6,8.5,1.2,12.2,1.9
		L2079,631.7z M2079.5,573.7c-1.6-0.4-3.6-0.7-5.9-1c-2.3-0.3-4.8-0.4-7.4-0.4c-4.5,0-8.5,1-12.2,3.1c-3.7,2.1-6.9,4.9-9.6,8.4
		c-2.7,3.5-4.8,7.7-6.3,12.3c-1.5,4.7-2.2,9.7-2.2,14.9c0,2.6,0.2,4.9,0.7,7.1c0.5,2.2,1.2,4.1,2.1,5.6c1,1.6,2.2,2.8,3.8,3.7
		c1.5,0.9,3.4,1.4,5.7,1.4c2.6,0,5-0.5,7.2-1.6c2.2-1.1,4.2-2.5,6.1-4.3c1.9-1.8,3.5-3.9,4.9-6.2c1.4-2.3,2.7-4.7,3.8-7.1
		c1.1-2.4,2.1-4.8,2.8-7.2c0.8-2.3,1.4-4.5,1.8-6.4L2079.5,573.7z"/>
	<path class="st1" d="M2127.1,636.7c-1.2,0.4-2.5,0.7-4,0.9c-1.5,0.2-3,0.4-4.4,0.4c-4.8,0-8.4-1.2-10.7-3.6
		c-2.4-2.4-3.6-5.6-3.6-9.6c0-1.2,0.1-2.6,0.4-4.2c0.2-1.6,0.6-3.6,1.1-6l10.6-50.5h11.8l-10.7,50.7c-0.4,2-0.7,3.5-0.9,4.6
		c-0.2,1.1-0.2,2-0.2,2.8c0,1.9,0.5,3.4,1.6,4.4c1.1,1,2.8,1.5,5.1,1.5c1.2,0,2.3-0.1,3.2-0.2c0.9-0.1,1.8-0.4,2.6-0.6L2127.1,636.7
		z M2135.4,538.1c0,2.1-0.7,4-2.2,5.5c-1.4,1.5-3.2,2.3-5.4,2.3c-2.1,0-3.9-0.7-5.4-2.2c-1.5-1.5-2.3-3.3-2.3-5.5
		c0-2.2,0.8-4,2.3-5.3c1.5-1.4,3.4-2.1,5.4-2.1s3.9,0.7,5.3,2.1S2135.4,536,2135.4,538.1z"/>
	<path class="st1" d="M2199.6,613.6c-0.4,1.8-0.7,3.8-1.1,6.1c-0.4,2.3-0.7,4.5-0.9,6.7c-0.3,2.2-0.5,4.3-0.6,6.2
		c-0.2,1.9-0.3,3.4-0.3,4.4h-12.1c0-0.9,0.1-2.1,0.2-3.4c0.1-1.3,0.2-2.7,0.4-4.1c0.2-1.4,0.3-2.8,0.5-4.2c0.2-1.4,0.3-2.6,0.5-3.6
		h-0.3c-1.5,2.3-3,4.5-4.5,6.6c-1.5,2.1-3.2,3.9-5.1,5.4c-1.9,1.6-3.9,2.8-6.2,3.7c-2.3,0.9-5,1.4-8,1.4c-3.2,0-6.1-0.6-8.7-1.7
		c-2.6-1.1-4.9-2.8-6.8-5.1c-1.9-2.3-3.4-5.1-4.4-8.5c-1-3.4-1.5-7.3-1.5-11.8c0-2.8,0.3-5.9,0.9-9.4c0.6-3.5,1.5-7.1,2.9-10.7
		c1.4-3.7,3.2-7.2,5.4-10.7c2.3-3.5,5.1-6.6,8.4-9.4c3.3-2.8,7.3-5,11.9-6.6c4.6-1.7,9.8-2.5,15.8-2.5c3.8,0,7.7,0.3,11.7,0.9
		c4,0.6,8,1.3,12,2.1L2199.6,613.6z M2196.3,573.7c-1.7-0.4-3.6-0.7-5.8-1c-2.2-0.3-4.3-0.4-6.3-0.4c-4.1,0-7.8,0.7-10.9,2
		c-3.2,1.3-5.9,3-8.2,5.1c-2.3,2.1-4.3,4.5-5.9,7.3c-1.6,2.8-2.9,5.6-3.8,8.4c-1,2.9-1.6,5.7-2,8.5c-0.4,2.8-0.6,5.3-0.6,7.6
		c0,2.7,0.2,5.1,0.7,7.3c0.5,2.2,1.2,4,2.2,5.5c1,1.5,2.3,2.7,3.9,3.5c1.6,0.8,3.5,1.2,5.7,1.2c2.4,0,4.6-0.5,6.7-1.5
		c2.1-1,4-2.3,5.8-4c1.8-1.7,3.4-3.6,4.9-5.8c1.5-2.2,2.8-4.5,4-6.9c1.2-2.4,2.2-4.9,3-7.5c0.8-2.5,1.5-5,2-7.4L2196.3,573.7z
		 M2181.5,525.3c0.9-0.1,1.7-0.2,2.4-0.2c0.7,0,1.6-0.1,2.6-0.1c2.1,0,4,0.2,5.6,0.7c1.6,0.5,2.9,1.2,4,2.1c1.1,0.9,1.9,1.9,2.5,3.1
		c0.5,1.2,0.8,2.5,0.8,3.9c0,1.7-0.3,3.2-1,4.6c-0.7,1.4-1.6,2.6-2.7,3.6s-2.4,1.9-3.8,2.5c-1.4,0.6-2.9,1-4.5,1.2l-0.7,3.6h-7.8
		l1.7-8.2c2.7,0,4.9-0.5,6.6-1.5c1.7-1,2.6-2.4,2.6-4.2c0-1.2-0.4-2.2-1.2-3c-0.8-0.8-2.2-1.2-4.2-1.2c-0.7,0-1.4,0.1-2.2,0.2
		c-0.8,0.1-1.6,0.2-2.3,0.4L2181.5,525.3z"/>
	<path class="st1" d="M2243.8,636.7c-1.2,0.4-2.5,0.7-4,0.9c-1.5,0.2-3,0.4-4.4,0.4c-4.8,0-8.4-1.2-10.7-3.6
		c-2.4-2.4-3.6-5.6-3.6-9.6c0-1.2,0.1-2.6,0.4-4.2c0.2-1.6,0.6-3.6,1.1-6l10.6-50.5h11.8l-10.7,50.7c-0.4,2-0.7,3.5-0.9,4.6
		c-0.2,1.1-0.2,2-0.2,2.8c0,1.9,0.5,3.4,1.6,4.4c1.1,1,2.8,1.5,5.1,1.5c1.2,0,2.3-0.1,3.2-0.2c0.9-0.1,1.8-0.4,2.6-0.6L2243.8,636.7
		z M2252.1,538.1c0,2.1-0.7,4-2.2,5.5c-1.4,1.5-3.2,2.3-5.4,2.3c-2.1,0-3.9-0.7-5.4-2.2c-1.5-1.5-2.3-3.3-2.3-5.5
		c0-2.2,0.8-4,2.3-5.3c1.5-1.4,3.4-2.1,5.4-2.1s3.9,0.7,5.3,2.1S2252.1,536,2252.1,538.1z"/>
	<path class="st1" d="M2365.4,589.6c0,3.5-0.4,7.2-1.1,10.9c-0.8,3.8-1.9,7.5-3.5,11.1c-1.6,3.7-3.5,7.1-5.9,10.4
		c-2.3,3.3-5.1,6.2-8.3,8.6c-3.2,2.5-6.8,4.5-10.8,5.9c-4,1.4-8.5,2.2-13.4,2.2c-2.8,0-5.6-0.3-8.3-0.8c-2.7-0.5-5.1-1.1-7.2-1.9
		l-7.3,34.7h-11.8l17.8-84.3c0.3-1.5,0.6-3.3,0.9-5.5c0.3-2.1,0.5-4.3,0.7-6.4c0.2-2.2,0.4-4.2,0.5-6.1c0.1-1.9,0.2-3.4,0.2-4.4h12
		c0,0.8-0.1,1.9-0.2,3.3c-0.1,1.4-0.3,2.8-0.5,4.3c-0.2,1.5-0.4,2.9-0.6,4.3c-0.2,1.4-0.4,2.5-0.5,3.4h0.3c3.4-5.7,7.2-10,11.4-12.8
		c4.2-2.8,8.8-4.2,13.8-4.2c3.3,0,6.3,0.6,9,1.7c2.7,1.1,4.9,2.8,6.8,5.1c1.9,2.3,3.3,5.1,4.3,8.5
		C2364.9,581.1,2365.4,585.1,2365.4,589.6z M2353.5,590.1c0-2.6-0.2-4.9-0.7-7.1c-0.5-2.2-1.2-4.1-2.2-5.6c-1-1.6-2.4-2.8-4-3.7
		s-3.6-1.4-6-1.4c-2.5,0-4.8,0.5-6.9,1.5c-2.2,1-4.2,2.4-6,4.1c-1.9,1.7-3.5,3.7-5.1,5.9c-1.5,2.3-2.9,4.6-4.1,7
		c-1.2,2.4-2.2,4.9-3,7.3c-0.8,2.4-1.5,4.7-1.9,6.9l-4.5,21.1c0.9,0.4,1.9,0.7,3.1,1c1.2,0.3,2.4,0.6,3.7,0.8
		c1.3,0.2,2.6,0.4,3.9,0.6c1.3,0.1,2.6,0.2,3.7,0.2c3.3,0,6.3-0.5,9.1-1.6c2.8-1.1,5.3-2.6,7.5-4.4c2.2-1.9,4.2-4.1,5.8-6.6
		c1.7-2.5,3.1-5.2,4.2-8.1c1.1-2.9,2-5.8,2.6-8.9S2353.5,593,2353.5,590.1z"/>
	<path class="st1" d="M2444.7,582.5c0,0.6-0.1,1.6-0.2,2.8c-0.2,1.3-0.4,2.6-0.6,4c-0.2,1.4-0.5,2.8-0.7,4.2
		c-0.3,1.4-0.5,2.6-0.7,3.5L2434,637h-11.8l8.9-42.7c0.2-0.8,0.4-1.6,0.6-2.6c0.2-1,0.4-2,0.5-3s0.3-1.9,0.4-2.7
		c0.1-0.8,0.1-1.5,0.1-2c0-3.7-0.8-6.6-2.5-8.6c-1.7-2-4.3-3.1-7.8-3.1c-3,0-6.1,0.9-9.1,2.7c-3,1.8-5.9,4.1-8.5,6.9
		c-2.6,2.8-4.9,6-6.8,9.5c-1.9,3.5-3.3,6.9-4,10.4l-7.6,35.3h-11.8l23.1-107.9h11.7l-11.1,52.1h0.3c1.8-2.7,3.7-5.2,5.8-7.5
		c2.1-2.3,4.3-4.3,6.7-6c2.3-1.7,4.8-3,7.4-4c2.6-0.9,5.3-1.4,8-1.4c6.1,0,10.7,1.8,13.8,5.4
		C2443.2,571.3,2444.7,576.2,2444.7,582.5z"/>
	<path class="st1" d="M2516.6,613.6c-0.4,1.8-0.7,3.8-1.1,6.1c-0.4,2.3-0.7,4.5-0.9,6.7c-0.3,2.2-0.5,4.3-0.6,6.2
		c-0.2,1.9-0.3,3.4-0.3,4.4h-12.1c0-0.9,0.1-2.1,0.2-3.4c0.1-1.3,0.2-2.7,0.4-4.1c0.2-1.4,0.3-2.8,0.5-4.2c0.2-1.4,0.3-2.6,0.5-3.6
		h-0.3c-1.5,2.3-3,4.5-4.5,6.6c-1.5,2.1-3.2,3.9-5.1,5.4c-1.9,1.6-3.9,2.8-6.2,3.7c-2.3,0.9-5,1.4-8,1.4c-3.2,0-6.1-0.6-8.7-1.7
		c-2.6-1.1-4.9-2.8-6.8-5.1c-1.9-2.3-3.4-5.1-4.4-8.5c-1-3.4-1.5-7.3-1.5-11.8c0-2.8,0.3-5.9,0.9-9.4c0.6-3.5,1.5-7.1,2.9-10.7
		c1.4-3.7,3.2-7.2,5.4-10.7c2.3-3.5,5.1-6.6,8.4-9.4c3.3-2.8,7.3-5,11.9-6.6c4.6-1.7,9.8-2.5,15.8-2.5c3.8,0,7.7,0.3,11.7,0.9
		c4,0.6,8,1.3,12,2.1L2516.6,613.6z M2513.3,573.7c-1.7-0.4-3.6-0.7-5.8-1c-2.2-0.3-4.3-0.4-6.3-0.4c-4.1,0-7.8,0.7-10.9,2
		c-3.2,1.3-5.9,3-8.2,5.1c-2.3,2.1-4.3,4.5-5.9,7.3c-1.6,2.8-2.9,5.6-3.8,8.4c-1,2.9-1.6,5.7-2,8.5c-0.4,2.8-0.6,5.3-0.6,7.6
		c0,2.7,0.2,5.1,0.7,7.3c0.5,2.2,1.2,4,2.2,5.5c1,1.5,2.3,2.7,3.9,3.5c1.6,0.8,3.5,1.2,5.7,1.2c2.4,0,4.6-0.5,6.7-1.5
		c2.1-1,4-2.3,5.8-4c1.8-1.7,3.4-3.6,4.9-5.8c1.5-2.2,2.8-4.5,4-6.9c1.2-2.4,2.2-4.9,3-7.5c0.8-2.5,1.5-5,2-7.4L2513.3,573.7z
		 M2501.9,550.2h-8.8l20.6-23.3h11.5L2501.9,550.2z"/>
	<path class="st1" d="M2604.6,589.6c0,3.5-0.4,7.2-1.1,10.9c-0.8,3.8-1.9,7.5-3.5,11.1c-1.6,3.7-3.5,7.1-5.9,10.4
		c-2.3,3.3-5.1,6.2-8.3,8.6c-3.2,2.5-6.8,4.5-10.8,5.9c-4,1.4-8.5,2.2-13.4,2.2c-2.8,0-5.6-0.3-8.3-0.8c-2.7-0.5-5.1-1.1-7.2-1.9
		l-7.3,34.7h-11.8l17.8-84.3c0.3-1.5,0.6-3.3,0.9-5.5c0.3-2.1,0.5-4.3,0.7-6.4c0.2-2.2,0.4-4.2,0.5-6.1c0.1-1.9,0.2-3.4,0.2-4.4h12
		c0,0.8-0.1,1.9-0.2,3.3c-0.1,1.4-0.3,2.8-0.5,4.3c-0.2,1.5-0.4,2.9-0.6,4.3c-0.2,1.4-0.4,2.5-0.5,3.4h0.3c3.4-5.7,7.2-10,11.4-12.8
		c4.2-2.8,8.8-4.2,13.8-4.2c3.3,0,6.3,0.6,9,1.7c2.7,1.1,4.9,2.8,6.8,5.1c1.9,2.3,3.3,5.1,4.3,8.5
		C2604.1,581.1,2604.6,585.1,2604.6,589.6z M2592.7,590.1c0-2.6-0.2-4.9-0.7-7.1c-0.5-2.2-1.2-4.1-2.2-5.6c-1-1.6-2.4-2.8-4-3.7
		s-3.6-1.4-6-1.4c-2.5,0-4.8,0.5-6.9,1.5c-2.2,1-4.2,2.4-6,4.1c-1.9,1.7-3.5,3.7-5.1,5.9c-1.5,2.3-2.9,4.6-4.1,7
		c-1.2,2.4-2.2,4.9-3,7.3c-0.8,2.4-1.5,4.7-1.9,6.9l-4.5,21.1c0.9,0.4,1.9,0.7,3.1,1c1.2,0.3,2.4,0.6,3.7,0.8
		c1.3,0.2,2.6,0.4,3.9,0.6c1.3,0.1,2.6,0.2,3.7,0.2c3.3,0,6.3-0.5,9.1-1.6c2.8-1.1,5.3-2.6,7.5-4.4c2.2-1.9,4.2-4.1,5.8-6.6
		c1.7-2.5,3.1-5.2,4.2-8.1c1.1-2.9,2-5.8,2.6-8.9S2592.7,593,2592.7,590.1z"/>
	<path class="st1" d="M2699.4,574H2681l-8.2,38.6c-0.3,1.5-0.6,3.1-0.9,4.8c-0.3,1.7-0.4,3.1-0.4,4.1c0,2.4,0.5,4.2,1.6,5.2
		c1.1,1.1,2.8,1.6,5.1,1.6c0.6,0,1.3-0.1,2.2-0.3c0.9-0.2,1.8-0.4,2.8-0.7c0.9-0.3,1.9-0.6,2.8-1c0.9-0.4,1.7-0.7,2.5-1l-2.2,10.2
		c-1.7,0.7-3.5,1.3-5.7,1.8c-2.1,0.5-4.1,0.7-6,0.7c-2.7,0-5-0.3-6.9-1s-3.5-1.7-4.7-3c-1.2-1.3-2.1-2.8-2.6-4.7
		c-0.5-1.8-0.8-3.9-0.8-6.2c0-1.4,0.1-3,0.4-4.8c0.3-1.8,0.6-3.5,1-5l8.4-39.6h-12.1l2.2-9.9h12l3.8-17.8c0.2-0.1,0.9-0.3,2.2-0.7
		c1.3-0.4,2.6-0.8,4.1-1.2c1.5-0.5,2.9-0.9,4.1-1.2c1.3-0.4,2-0.6,2.1-0.6l-4.5,21.6h18.4L2699.4,574z"/>
	<path class="st1" d="M2770,591.1c0,6.5-0.9,12.6-2.7,18.4c-1.8,5.8-4.5,10.9-7.9,15.2c-3.4,4.3-7.6,7.8-12.5,10.3
		c-4.9,2.5-10.5,3.8-16.6,3.8c-4.2,0-7.9-0.7-11.3-2c-3.3-1.3-6.2-3.2-8.5-5.7c-2.3-2.5-4.2-5.5-5.4-9c-1.3-3.5-1.9-7.5-1.9-12
		c0-6.7,1-12.9,2.9-18.8c1.9-5.8,4.6-10.9,8.1-15.2c3.5-4.3,7.7-7.7,12.5-10.1c4.9-2.4,10.2-3.7,16.1-3.7c4.1,0,7.9,0.7,11.2,2
		c3.3,1.3,6.2,3.2,8.6,5.7c2.4,2.5,4.2,5.5,5.5,9C2769.3,582.6,2770,586.6,2770,591.1z M2758,591.6c0-3.1-0.4-5.8-1.1-8.2
		c-0.8-2.4-1.8-4.4-3.2-6c-1.4-1.6-3-2.9-5-3.8c-1.9-0.9-4.1-1.3-6.5-1.3c-4.2,0-7.9,1.1-11.3,3.2c-3.4,2.1-6.2,4.9-8.5,8.4
		c-2.3,3.5-4.1,7.4-5.4,11.9c-1.3,4.4-1.9,9-1.9,13.6c0,2.9,0.4,5.6,1.1,8c0.7,2.4,1.8,4.4,3.1,6.1c1.4,1.7,3,3,5,3.9
		c2,0.9,4.2,1.4,6.7,1.4c4.2,0,8-1.1,11.4-3.2c3.4-2.1,6.2-4.9,8.5-8.4c2.3-3.5,4.1-7.5,5.3-11.9
		C2757.4,600.8,2758,596.3,2758,591.6z"/>
	<path class="st1" d="M2840.1,613.6c-0.4,1.8-0.7,3.8-1.1,6.1c-0.4,2.3-0.7,4.5-0.9,6.7c-0.3,2.2-0.5,4.3-0.6,6.2
		c-0.2,1.9-0.3,3.4-0.3,4.4h-12.1c0-0.9,0.1-2.1,0.2-3.4c0.1-1.3,0.2-2.7,0.4-4.1c0.2-1.4,0.3-2.8,0.5-4.2c0.2-1.4,0.3-2.6,0.5-3.6
		h-0.3c-1.5,2.3-3,4.5-4.5,6.6c-1.5,2.1-3.2,3.9-5.1,5.4c-1.9,1.6-3.9,2.8-6.2,3.7c-2.3,0.9-5,1.4-8,1.4c-3.2,0-6.1-0.6-8.7-1.7
		c-2.6-1.1-4.9-2.8-6.8-5.1c-1.9-2.3-3.4-5.1-4.4-8.5c-1-3.4-1.5-7.3-1.5-11.8c0-2.8,0.3-5.9,0.9-9.4c0.6-3.5,1.5-7.1,2.9-10.7
		c1.4-3.7,3.2-7.2,5.4-10.7c2.3-3.5,5.1-6.6,8.4-9.4c3.3-2.8,7.3-5,11.9-6.6c4.6-1.7,9.8-2.5,15.8-2.5c3.8,0,7.7,0.3,11.7,0.9
		c4,0.6,8,1.3,12,2.1L2840.1,613.6z M2836.7,573.7c-1.7-0.4-3.6-0.7-5.8-1c-2.2-0.3-4.3-0.4-6.3-0.4c-4.1,0-7.8,0.7-10.9,2
		c-3.2,1.3-5.9,3-8.2,5.1c-2.3,2.1-4.3,4.5-5.9,7.3c-1.6,2.8-2.9,5.6-3.8,8.4c-1,2.9-1.6,5.7-2,8.5c-0.4,2.8-0.6,5.3-0.6,7.6
		c0,2.7,0.2,5.1,0.7,7.3c0.5,2.2,1.2,4,2.2,5.5c1,1.5,2.3,2.7,3.9,3.5c1.6,0.8,3.5,1.2,5.7,1.2c2.4,0,4.6-0.5,6.7-1.5
		c2.1-1,4-2.3,5.8-4c1.8-1.7,3.4-3.6,4.9-5.8c1.5-2.2,2.8-4.5,4-6.9c1.2-2.4,2.2-4.9,3-7.5c0.8-2.5,1.5-5,2-7.4L2836.7,573.7z
		 M2830.8,550.2l-17-23.3h10.9l14.7,23.3H2830.8z"/>
	<path class="st1" d="M2929.1,582.3c0,0.7-0.1,1.7-0.2,2.9c-0.2,1.2-0.4,2.6-0.6,4c-0.3,1.4-0.5,2.8-0.8,4.2
		c-0.3,1.4-0.5,2.6-0.7,3.6l-8.5,39.9h-11.8l8.9-42.7c0.2-0.8,0.4-1.6,0.6-2.6c0.2-1,0.4-2,0.5-3s0.3-1.9,0.4-2.7
		c0.1-0.8,0.1-1.5,0.1-2c0-3.6-0.9-6.5-2.6-8.5c-1.7-2.1-4.3-3.1-7.7-3.1c-3.1,0-6.2,0.9-9.3,2.8c-3.1,1.9-5.9,4.2-8.5,7
		s-4.9,6-6.7,9.4c-1.9,3.4-3.1,6.7-3.8,9.9l-7.6,35.6h-11.8l11.2-52c0.4-1.8,0.8-3.8,1.1-5.8c0.4-2,0.7-4,1.1-5.8
		c0.3-1.9,0.6-3.6,0.9-5.2c0.2-1.6,0.4-2.9,0.6-4h11.4c-0.2,1.9-0.5,3.8-0.9,5.8c-0.3,2-0.6,3.9-0.9,5.6c-0.3,2-0.6,3.9-0.9,5.8h0.3
		c1.7-2.6,3.5-5.1,5.5-7.4c2-2.3,4.2-4.3,6.5-6c2.3-1.7,4.8-3.1,7.5-4.1c2.6-1,5.4-1.5,8.3-1.5c3.2,0,6,0.5,8.3,1.5
		c2.3,1,4.3,2.3,5.8,4.1c1.5,1.8,2.7,3.9,3.4,6.3C2928.7,576.7,2929.1,579.4,2929.1,582.3z"/>
	<path class="st1" d="M3040.8,614.6c-0.3,1.5-0.7,3.3-1,5.5c-0.3,2.1-0.6,4.3-0.8,6.4c-0.2,2.2-0.4,4.2-0.6,6.1
		c-0.2,1.9-0.3,3.4-0.3,4.4H3026c0-0.8,0.1-1.9,0.2-3.2c0.1-1.4,0.3-2.8,0.4-4.2c0.2-1.5,0.3-2.9,0.5-4.2c0.2-1.4,0.4-2.5,0.5-3.3
		h-0.3c-1.7,2.8-3.4,5.2-5.1,7.3c-1.7,2.1-3.5,3.9-5.4,5.3c-1.9,1.4-3.9,2.5-6,3.2s-4.5,1.1-7,1.1c-3.3,0-6.3-0.6-9-1.8
		s-4.9-2.9-6.8-5.2c-1.9-2.3-3.3-5.1-4.3-8.5c-1-3.4-1.5-7.3-1.5-11.7c0-3.5,0.4-7.2,1.1-11c0.7-3.8,1.9-7.5,3.4-11.2
		c1.5-3.7,3.5-7.1,5.9-10.4c2.4-3.3,5.2-6.1,8.5-8.6c3.3-2.5,7-4.4,11.2-5.9c4.2-1.4,8.9-2.2,14.2-2.2c2.7,0,5.1,0.2,7.4,0.5
		c2.3,0.4,4.2,0.7,5.9,1.1l7.4-34.9h11.5L3040.8,614.6z M3037.7,574c-1.8-0.5-3.7-0.9-5.7-1.2s-4.1-0.5-6.3-0.5
		c-4.1,0-7.8,0.6-10.9,1.9c-3.2,1.3-5.9,3-8.3,5.1s-4.3,4.6-5.9,7.3c-1.6,2.7-2.9,5.5-3.8,8.4c-1,2.9-1.7,5.7-2.1,8.5
		c-0.4,2.8-0.6,5.3-0.6,7.5c0,2.7,0.2,5.1,0.7,7.3c0.5,2.2,1.2,4.1,2.2,5.6c1,1.6,2.3,2.8,4,3.6c1.6,0.9,3.6,1.3,5.8,1.3
		c2.4,0,4.6-0.5,6.7-1.5c2.1-1,4-2.3,5.8-4.1c1.8-1.7,3.4-3.7,4.9-5.9c1.5-2.2,2.8-4.6,4-7.1c1.2-2.5,2.2-5.1,3-7.7
		c0.8-2.6,1.5-5.1,2-7.4L3037.7,574z"/>
	<path class="st1" d="M3085.3,636.7c-1.2,0.4-2.5,0.7-4,0.9c-1.5,0.2-3,0.4-4.4,0.4c-4.8,0-8.4-1.2-10.7-3.6
		c-2.4-2.4-3.6-5.6-3.6-9.6c0-1.2,0.1-2.6,0.4-4.2c0.2-1.6,0.6-3.6,1.1-6l10.6-50.5h11.8l-10.7,50.7c-0.4,2-0.7,3.5-0.9,4.6
		c-0.2,1.1-0.2,2-0.2,2.8c0,1.9,0.5,3.4,1.6,4.4c1.1,1,2.8,1.5,5.1,1.5c1.2,0,2.3-0.1,3.2-0.2c0.9-0.1,1.8-0.4,2.6-0.6L3085.3,636.7
		z M3093.6,538.1c0,2.1-0.7,4-2.2,5.5c-1.4,1.5-3.2,2.3-5.4,2.3c-2.1,0-3.9-0.7-5.4-2.2c-1.5-1.5-2.3-3.3-2.3-5.5
		c0-2.2,0.8-4,2.3-5.3c1.5-1.4,3.4-2.1,5.4-2.1s3.9,0.7,5.3,2.1S3093.6,536,3093.6,538.1z"/>
	<path class="st1" d="M3161.6,581.2c0,3.8-0.9,7.3-2.6,10.5c-1.7,3.2-4.5,5.9-8.5,8.1c-3.9,2.3-9.1,4-15.6,5.2
		c-6.5,1.2-14.4,1.9-23.9,1.9c-0.1,0.5-0.1,1.1-0.1,1.6c0,0.5,0,1,0,1.4c0,2.6,0.4,5,1.1,7.3c0.7,2.3,1.8,4.3,3.3,6
		c1.5,1.7,3.4,3.1,5.8,4.1c2.3,1,5.1,1.5,8.4,1.5c3.3,0,6.9-0.6,10.8-1.9c3.9-1.3,7.7-3,11.2-5.4l-2.2,11.5c-2.6,1.5-5.7,2.8-9.3,4
		c-3.6,1.1-7.6,1.7-12.1,1.7c-5.4,0-9.9-0.8-13.6-2.5c-3.7-1.7-6.6-3.9-8.9-6.7c-2.3-2.8-3.9-6-4.9-9.6c-1-3.6-1.5-7.4-1.5-11.4
		c0-4.3,0.5-8.4,1.4-12.3c0.9-4,2.3-7.7,4-11.1c1.7-3.4,3.8-6.5,6.2-9.4c2.4-2.8,5.1-5.2,8-7.2c2.9-2,6.1-3.5,9.5-4.6
		c3.4-1.1,6.9-1.6,10.5-1.6c3.7,0,7.1,0.5,9.9,1.5c2.9,1,5.3,2.4,7.2,4.1c1.9,1.7,3.4,3.7,4.4,6
		C3161.1,576.2,3161.6,578.6,3161.6,581.2z M3149.7,581.7c0-3-1.1-5.3-3.3-7c-2.2-1.7-5.1-2.5-8.8-2.5c-2.9,0-5.7,0.6-8.4,1.9
		c-2.7,1.3-5.2,3-7.5,5.2c-2.3,2.2-4.2,4.8-5.9,7.9c-1.7,3.1-2.9,6.4-3.6,9.9c6.8,0,12.5-0.3,17.3-1c4.7-0.7,8.6-1.7,11.6-3
		s5.2-3,6.5-4.9C3149,586.3,3149.7,584.2,3149.7,581.7z M3125.3,659.3c-1.9,0-3.6-0.7-5-2.1c-1.4-1.4-2.1-3-2.1-5
		c0-1.9,0.7-3.6,2.1-4.9c1.4-1.3,3.1-2,4.9-2c1.9,0,3.6,0.7,5,2c1.4,1.3,2.1,2.9,2.1,4.9c0,1.9-0.7,3.6-2.1,5
		C3128.9,658.6,3127.2,659.3,3125.3,659.3z M3151.7,550.2l-8.1-16.4l-15.2,16.4h-8.6l20.1-23.6h9.5l10.3,23.6H3151.7z"/>
	<path class="st1" d="M3238.8,582.3c0,0.7-0.1,1.7-0.2,2.9c-0.2,1.2-0.4,2.6-0.6,4c-0.3,1.4-0.5,2.8-0.8,4.2
		c-0.3,1.4-0.5,2.6-0.7,3.6l-8.5,39.9h-11.8l8.9-42.7c0.2-0.8,0.4-1.6,0.6-2.6c0.2-1,0.4-2,0.5-3s0.3-1.9,0.4-2.7
		c0.1-0.8,0.1-1.5,0.1-2c0-3.6-0.9-6.5-2.6-8.5c-1.7-2.1-4.3-3.1-7.7-3.1c-3.1,0-6.2,0.9-9.3,2.8c-3.1,1.9-5.9,4.2-8.5,7
		s-4.9,6-6.7,9.4c-1.9,3.4-3.1,6.7-3.8,9.9l-7.6,35.6h-11.8l11.2-52c0.4-1.8,0.8-3.8,1.1-5.8c0.4-2,0.7-4,1.1-5.8
		c0.3-1.9,0.6-3.6,0.9-5.2c0.2-1.6,0.4-2.9,0.6-4h11.4c-0.2,1.9-0.5,3.8-0.9,5.8c-0.3,2-0.6,3.9-0.9,5.6c-0.3,2-0.6,3.9-0.9,5.8h0.3
		c1.7-2.6,3.5-5.1,5.5-7.4c2-2.3,4.2-4.3,6.5-6c2.3-1.7,4.8-3.1,7.5-4.1c2.6-1,5.4-1.5,8.3-1.5c3.2,0,6,0.5,8.3,1.5
		c2.3,1,4.3,2.3,5.8,4.1c1.5,1.8,2.7,3.9,3.4,6.3C3238.4,576.7,3238.8,579.4,3238.8,582.3z"/>
</g>
<g>
</g>
<g>
</g>
<g>
</g>
<g>
</g>
<g>
</g>
</svg>
